<svg width="48" height="48" viewBox="0 0 48 48" fill="none" xmlns="http://www.w3.org/2000/svg">
<g id="Frame" clip-path="url(#clip0_1_241)">
<path id="Vector" d="M20.2013 22.8165V24.0567C20.7094 24.0567 20.7908 23.8875 20.7908 23.4334C20.7908 22.9857 20.7165 22.8165 20.2013 22.8165Z" fill="white"/>
<path id="Vector_2" d="M24.0004 12.6108C17.7221 12.6108 12.6143 17.7198 12.6143 24C12.6143 30.2793 17.7221 35.3883 24.0004 35.3883C30.279 35.3883 35.3865 30.2793 35.3865 24C35.3865 17.7198 30.279 12.6108 24.0004 12.6108ZM18.4545 25.5746C18.4545 26.9032 17.9396 26.9508 16.7471 26.9508H15.7504V22.125H16.7471C17.7026 22.125 18.4545 22.1385 18.4545 23.2976C18.4545 23.8331 18.2989 24.3142 17.6554 24.3753V24.4226C18.3735 24.4226 18.4545 24.9513 18.4545 25.5746ZM20.9539 26.9508C20.8185 26.754 20.7911 26.4697 20.7911 26.28V25.2566C20.7911 24.918 20.5879 24.7485 20.3846 24.7485H20.2016V26.9512H19.1254V22.125H20.2088C21.279 22.125 21.9165 22.2337 21.9165 23.25C21.9165 23.8533 21.6656 24.246 21.0555 24.348V24.3618C21.5981 24.3753 21.9165 24.5786 21.9165 25.2701V26.28C21.9165 26.4697 21.9503 26.754 22.0856 26.9508H20.9539ZM24.3679 26.9508L24.2385 25.7643H23.6291L23.4461 26.9508H22.4978L23.3179 22.125H24.8629L25.4861 26.9508H24.3679ZM29.1848 26.9508H27.7414L26.9074 22.9181H26.8939V26.9508H25.8754V22.125H27.5715L28.29 25.6353H28.3031V22.125H29.1848V26.9508ZM30.9383 26.9508H29.6254V22.125H30.9383C32.1983 22.125 32.6254 22.3286 32.6254 23.7723V25.4932C32.6254 26.4086 32.3543 26.9508 30.9383 26.9508Z" fill="white"/>
<path id="Vector_3" d="M30.9038 22.8164V26.2597C31.4528 26.2597 31.5004 26.0493 31.5004 25.5888V23.6024C31.5004 22.9586 31.4738 22.8164 30.9038 22.8164ZM23.9472 22.8843L23.751 25.0327H24.1575L23.961 22.8843H23.9472ZM16.7333 22.8164V24.0839C17.0854 24.0637 17.3295 24.1788 17.3295 23.4536C17.3295 22.9788 17.289 22.7827 16.7333 22.8164ZM16.7333 24.7747V26.2593C17.3359 26.3137 17.3295 25.9679 17.3295 25.4662C17.3295 24.7818 17.2077 24.7747 16.7333 24.7747Z" fill="white"/>
<path id="Vector_4" d="M45.8959 19.3523C45.3255 18.5978 44.7855 17.8853 44.5849 17.2628C44.3666 16.5867 44.3842 15.6555 44.4034 14.6689C44.4341 13.0617 44.4683 11.2395 43.4239 9.78792C42.36 8.31567 40.6155 7.78392 39.0758 7.31517C38.1499 7.03355 37.2761 6.76767 36.7223 6.36117C36.1823 5.96517 35.6681 5.21592 35.124 4.4228C34.2041 3.08217 33.1624 1.56342 31.4224 0.993048C30.9746 0.846048 30.5066 0.774423 29.9925 0.774423C28.7996 0.774423 27.6532 1.17455 26.544 1.5623C25.6072 1.88817 24.7237 2.1968 24 2.1968C23.2759 2.1968 22.3924 1.8878 21.4564 1.56117C20.3482 1.17417 19.2026 0.774048 18.0112 0.774048C17.4975 0.774048 17.0291 0.844923 16.5791 0.991923C14.8369 1.56267 13.7944 3.08217 12.8745 4.4228C12.33 5.21592 11.8155 5.96555 11.2744 6.36267C10.7216 6.76805 9.84788 7.03392 8.92275 7.31592C7.3845 7.78467 5.6415 8.31567 4.57913 9.78455C3.53025 11.2392 3.56475 13.062 3.59587 14.6704C3.61462 15.6563 3.633 16.587 3.41513 17.2632C3.2145 17.8853 2.67488 18.5982 2.10413 19.3519C1.1175 20.6562 0 22.1329 0 24C0 25.8664 1.11825 27.3439 2.1045 28.6482C2.67525 29.4027 3.2145 30.1152 3.41513 30.7365C3.63188 31.4108 3.61387 32.3415 3.59512 33.3267C3.56437 34.9354 3.5295 36.7587 4.57762 38.2125C5.63925 39.684 7.38375 40.2143 8.92237 40.6823C9.84787 40.9635 10.7224 41.2294 11.2744 41.6352C11.8151 42.0323 12.3293 42.7819 12.8741 43.5754C13.794 44.9164 14.8365 46.4374 16.5769 47.0067C17.0276 47.1544 17.4956 47.2257 18.0079 47.2257C19.1981 47.2257 20.3438 46.8259 21.4519 46.4385C22.389 46.1115 23.2736 45.8033 24 45.8033C24.7237 45.8033 25.6065 46.1108 26.5414 46.4374C27.6502 46.8244 28.7977 47.2257 29.9917 47.2257C30.5059 47.2257 30.9746 47.154 31.4235 47.0052C33.1609 46.4367 34.2034 44.9164 35.1236 43.5747C35.6678 42.7819 36.1819 42.0323 36.7234 41.6337C37.2743 41.2305 38.1488 40.965 39.0746 40.6838C40.614 40.2158 42.3592 39.6852 43.4212 38.2148C44.4675 36.7594 44.433 34.9384 44.4026 33.3312C44.3831 32.3445 44.3662 31.413 44.5845 30.7362C44.7844 30.1167 45.3236 29.4045 45.8929 28.6508C46.8817 27.3469 48 25.8675 48 24C48 22.1333 46.8825 20.6562 45.8959 19.3523ZM36.1016 15.588L37.3474 15.1275L37.6751 13.8417C37.7299 13.6279 37.8844 13.5953 38.0198 13.7682L38.8418 14.8099L40.1663 14.7233C40.3871 14.7083 40.4655 14.8452 40.3436 15.0282L39.606 16.1329L40.0973 17.3663C40.1782 17.5703 40.0729 17.6873 39.8617 17.628L38.583 17.2688L37.5615 18.1178C37.3927 18.2577 37.2484 18.1943 37.2397 17.9742L37.1865 16.6474L36.0645 15.9383C35.88 15.8217 35.8961 15.6645 36.1016 15.588ZM30.0919 10.5499L30.9405 9.52767L30.5816 8.25005C30.5224 8.0378 30.6394 7.93242 30.8434 8.0138L32.0756 8.50542L33.18 7.7678C33.363 7.64442 33.5002 7.72392 33.4849 7.9433L33.399 9.26855L34.4404 10.0913C34.6125 10.2274 34.5795 10.3815 34.368 10.4359L33.0806 10.764L32.6198 12.0098C32.544 12.2153 32.3873 12.2329 32.2691 12.0469L31.56 10.9238L30.2336 10.8713C30.0154 10.863 29.9516 10.7187 30.0919 10.5499ZM21.7511 6.61992L23.0644 6.42867L23.6516 5.23767C23.7495 5.03967 23.9066 5.03967 24.0037 5.23767L24.5918 6.42867L25.9046 6.61992C26.1225 6.65105 26.1709 6.80105 26.0138 6.9548L25.0635 7.88255L25.2878 9.19167C25.3252 9.40842 25.1977 9.50142 25.0024 9.39905L23.8279 8.78105L22.653 9.39905C22.458 9.50142 22.3305 9.40842 22.3676 9.19167L22.5922 7.88255L21.642 6.9548C21.4845 6.80142 21.5336 6.65105 21.7511 6.61992ZM13.1801 9.95967L14.2219 9.13805L14.1353 7.8128C14.1206 7.5923 14.2571 7.51355 14.4401 7.63655L15.5441 8.37417L16.7771 7.88255C16.9819 7.8008 17.0989 7.90655 17.0392 8.11842L16.6796 9.39642L17.5286 10.4183C17.6689 10.5874 17.6047 10.7318 17.385 10.7408L16.0586 10.7929L15.3502 11.9157C15.2329 12.1017 15.0761 12.0848 14.9993 11.8785L14.5391 10.6324L13.2529 10.3047C13.0402 10.2507 13.008 10.0962 13.1801 9.95967ZM7.35712 14.496L8.682 14.5819L9.50362 13.5398C9.64013 13.3673 9.79425 13.4003 9.84863 13.6129L10.176 14.8995L11.4221 15.3604C11.6284 15.4365 11.6452 15.5933 11.4589 15.7114L10.3365 16.4202L10.2844 17.7465C10.2758 17.9667 10.1314 18.0308 9.96225 17.8905L8.94075 17.0408L7.6635 17.4004C7.45125 17.46 7.3455 17.343 7.42688 17.1383L7.9185 15.9057L7.18087 14.8013C7.05788 14.6175 7.137 14.4814 7.35712 14.496ZM6.03338 26.2332L5.84288 24.9192L4.65225 24.3319C4.45425 24.2348 4.45425 24.0773 4.65225 23.9798L5.84288 23.3925L6.03338 22.0785C6.06525 21.8607 6.21562 21.8115 6.369 21.9694L7.29562 22.92L8.60437 22.6954C8.82113 22.6579 8.91412 22.7858 8.81175 22.9812L8.19413 24.156L8.81213 25.3313C8.91413 25.5259 8.82113 25.6534 8.60437 25.6167L7.29562 25.3924L6.369 26.3419C6.21525 26.4994 6.06525 26.4507 6.03338 26.2332ZM11.2905 32.9858L10.0451 33.4463L9.71737 34.7329C9.663 34.9463 9.50887 34.9793 9.37275 34.8064L8.55112 33.7647L7.22587 33.8513C7.00575 33.8659 6.927 33.729 7.05 33.5464L7.78763 32.4417L7.29562 31.209C7.21425 31.0039 7.32 30.8869 7.5315 30.9469L8.80912 31.3058L9.831 30.4568C9.99975 30.3165 10.1445 30.3799 10.1528 30.6004L10.2056 31.9268L11.3284 32.6359C11.514 32.7525 11.4967 32.9093 11.2905 32.9858ZM17.3014 38.0243L16.4528 39.0469L16.8116 40.3238C16.8713 40.5357 16.7542 40.6414 16.5499 40.5604L15.3173 40.0684L14.2133 40.806C14.0303 40.9298 13.8934 40.8507 13.9084 40.6302L13.9946 39.3053L12.9525 38.4833C12.78 38.3468 12.813 38.1919 13.026 38.1379L14.3119 37.8102L14.7728 36.5644C14.8489 36.3585 15.0052 36.3409 15.123 36.5277L15.8325 37.6493L17.1585 37.7018C17.3775 37.7112 17.4416 37.8552 17.3014 38.0243ZM25.6418 41.9547L24.3289 42.1452L23.7416 43.3369C23.6449 43.5349 23.4862 43.5345 23.3899 43.3369L22.8026 42.1459L21.489 41.9547C21.2711 41.9224 21.2224 41.7724 21.3799 41.619L22.3294 40.6913L22.1051 39.3822C22.0684 39.1662 22.1955 39.0724 22.3909 39.1748L23.5661 39.7924L24.7406 39.174C24.9356 39.0724 25.0627 39.1654 25.0256 39.3822L24.8021 40.6913L25.7505 41.6183C25.9088 41.7732 25.8596 41.9224 25.6418 41.9547ZM34.212 38.6149L33.1714 39.4362L33.2576 40.7614C33.273 40.9823 33.1354 41.061 32.9528 40.9384L31.8484 40.2004L30.6157 40.692C30.4106 40.7734 30.294 40.6673 30.3536 40.4562L30.7125 39.1782L29.8635 38.1563C29.7236 37.9875 29.7874 37.8424 30.0071 37.8349L31.3342 37.7813L32.0419 36.6578C32.1592 36.4729 32.3164 36.4902 32.3929 36.696L32.8538 37.9418L34.1393 38.2699C34.3526 38.3239 34.3849 38.4777 34.212 38.6149ZM24 36.9428C16.8529 36.9428 11.0599 31.1487 11.0599 24C11.0599 16.8514 16.8529 11.0562 24 11.0562C31.1464 11.0562 36.9401 16.851 36.9401 24C36.9401 31.1487 31.1464 36.9428 24 36.9428ZM40.0373 34.0782L38.7116 33.9919L37.89 35.034C37.7535 35.2062 37.5994 35.1728 37.5454 34.9609L37.2173 33.6743L35.9719 33.2134C35.766 33.1377 35.7484 32.9809 35.9344 32.8628L37.0571 32.1537L37.1092 30.8265C37.1179 30.6079 37.2626 30.5434 37.4306 30.6837L38.4533 31.5327L39.7298 31.1738C39.942 31.1138 40.0481 31.2315 39.9664 31.4359L39.4755 32.6685L40.2124 33.7725C40.3361 33.9567 40.2562 34.0928 40.0373 34.0782ZM42.7421 24.5944L41.5519 25.182L41.3599 26.4964C41.328 26.7135 41.1776 26.7619 41.025 26.6052L40.0969 25.6545L38.7881 25.8788C38.5714 25.9163 38.4784 25.7895 38.5804 25.5938L39.198 24.4182L38.58 23.2425C38.4784 23.0487 38.5714 22.9212 38.7881 22.9579L40.0969 23.1818L41.0235 22.2327C41.1772 22.0744 41.3284 22.1239 41.3595 22.341L41.5508 23.6547L42.7414 24.2423C42.9401 24.3394 42.9394 24.4973 42.7421 24.5944Z" fill="url(#paint0_linear_1_241)"/>
</g>
<defs>
<linearGradient id="paint0_linear_1_241" x1="34.4252" y1="11.2429" x2="12.8778" y2="39.9404" gradientUnits="userSpaceOnUse">
<stop stop-color="#9DE8EE"/>
<stop offset="0.0001" stop-color="#9DE8EE"/>
<stop offset="0.490049" stop-color="#FA7C0B"/>
<stop offset="1" stop-color="#9F8CED"/>
</linearGradient>
<clipPath id="clip0_1_241">
<rect width="48" height="48" fill="white"/>
</clipPath>
</defs>
</svg>
