<svg width="245" height="224" viewBox="0 0 245 224" fill="none" xmlns="http://www.w3.org/2000/svg">
<g id="Group">
<path id="Vector" d="M180.415 145.011L202.851 142.673L215.212 59.4946L188.677 81.481C180.877 142.172 182.496 129.836 180.415 145.011Z" fill="#81F8F8"/>
<path id="Vector_2" d="M58.4557 145.075L35.9296 142.583L23.5551 59.5459L50.0646 81.6993C57.4919 137.7 55.6801 124.194 58.4557 145.075Z" fill="#81F8F8"/>
<path id="Vector_3" d="M78.6944 41.9417C80.2236 41.0037 84.7211 43.9206 85.4921 47.6728C85.7748 48.9578 85.7234 51.1809 84.554 51.7977C83.3847 52.4145 81.0203 50.8082 79.928 49.4461C77.8592 46.9147 77.3452 42.777 78.6944 41.9417Z" fill="#81F8F8"/>
<path id="Vector_4" d="M127.64 9.82936C128.745 8.54436 132.305 9.31536 134.348 11.2429C136.031 12.8234 137.355 15.8046 136.173 17.2438C135.209 18.4389 132.896 18.1819 131.482 17.5779C128.141 16.1644 126.355 11.3585 127.64 9.82936Z" fill="#81F8F8"/>
<path id="Vector_5" d="M147.879 68.8367C149.318 69.068 150.976 67.1019 151.49 65.2772C152.376 62.1418 150.205 58.3125 148.496 58.3125C147.056 58.3125 145.784 61.0239 145.579 63.157C145.373 65.2901 146.234 68.5797 147.879 68.8367Z" fill="#81F8F8"/>
<path id="Vector_6" d="M112.837 33.2552C115.317 33.2552 117.296 36.2364 117.72 38.7036C118.478 43.291 114.199 48.3796 111.295 47.9042C108.879 47.5058 107.119 43.2525 107.594 39.7701C107.967 36.9817 109.997 33.2166 112.837 33.2552Z" fill="#FFD997"/>
<path id="Vector_7" d="M87.8051 84.7064C86.1218 82.9074 87.4839 78.2814 90.2209 75.7885C92.4697 73.771 96.5817 72.3575 98.4963 74.1951C100.411 76.0326 99.4986 79.4893 98.0594 81.6352C95.5922 85.336 89.6941 86.7367 87.8051 84.7064Z" fill="#FFD997"/>
<path id="Vector_8" d="M158.39 93.1617C156.643 91.5426 157.324 87.572 159.084 85.1433C161.115 82.3549 165.445 80.3888 167.784 82.1364C169.737 83.6013 169.673 87.1608 168.529 89.4609C166.563 93.4187 160.588 95.1792 158.39 93.1617Z" fill="#FFD997"/>
<path id="Vector_9" d="M91.7887 105.575C90.5037 112.681 88.6661 120.532 86.6487 127.934C88.4004 128.81 90.2924 129.371 92.2384 129.592C94.7656 131.518 97.6541 132.916 100.732 133.704C100.334 134.371 100.173 135.153 100.274 135.924C100.375 136.695 100.733 137.409 101.29 137.951C101.847 138.493 102.571 138.831 103.344 138.912C104.117 138.992 104.894 138.81 105.551 138.394C105.319 139.168 105.325 139.993 105.569 140.763C105.813 141.533 106.283 142.212 106.918 142.711C107.553 143.211 108.324 143.507 109.13 143.562C109.936 143.617 110.739 143.428 111.436 143.02C111.41 143.77 111.592 144.513 111.963 145.166C112.334 145.819 112.878 146.356 113.536 146.719C114.194 147.081 114.939 147.253 115.689 147.218C116.439 147.182 117.164 146.938 117.784 146.515C117.951 147.168 118.28 147.768 118.741 148.26C119.201 148.753 119.778 149.121 120.419 149.331C121.059 149.541 121.742 149.586 122.405 149.462C123.067 149.338 123.688 149.05 124.209 148.622C126.188 150.73 128.745 151.282 130.056 150.344C131.367 149.406 131.341 147.35 131.341 146.746C131.352 145.772 131.151 144.807 130.75 143.919C131.228 144.554 131.877 145.039 132.622 145.317C133.366 145.595 134.175 145.654 134.952 145.487C137.342 144.857 138.922 141.336 137.213 138.355C138.704 139.807 141.39 140.36 142.97 139.216C143.691 138.598 144.189 137.761 144.389 136.832C144.588 135.904 144.478 134.936 144.075 134.076C144.709 134.855 145.615 135.364 146.61 135.5C147.605 135.636 148.614 135.389 149.434 134.809C149.809 134.382 150.083 133.876 150.234 133.329C150.386 132.781 150.411 132.206 150.308 131.648C151.462 131.96 152.647 132.149 153.841 132.213C151.259 125.463 149.574 118.404 148.83 111.216C140.567 109.16 139.218 106.449 133.59 104.637C131.57 103.893 129.432 103.523 127.28 103.545C125.126 103.6 123.002 104.067 121.022 104.92C118.757 103.789 116.407 102.835 113.993 102.067C112.793 101.612 111.509 101.419 110.228 101.501C109.089 101.683 107.984 102.038 106.952 102.555C104.511 103.471 102.158 104.607 99.9227 105.948L91.7887 105.575Z" fill="#FFD997"/>
<path id="Vector_10" d="M82.1255 131.634C81.8098 131.632 81.5043 131.746 81.2673 131.955C81.0303 132.163 80.8784 132.452 80.8405 132.765C80.8079 133.02 80.8524 133.279 80.9682 133.508C81.084 133.737 81.2659 133.926 81.4903 134.051C81.7148 134.176 81.9715 134.231 82.2273 134.208C82.4832 134.186 82.7265 134.087 82.9257 133.925C83.125 133.763 83.2712 133.545 83.3453 133.299C83.4195 133.053 83.4183 132.791 83.3418 132.546C83.2654 132.301 83.1172 132.084 82.9164 131.924C82.7156 131.764 82.4715 131.667 82.2154 131.647L82.1255 131.634Z" fill="black"/>
<path id="Vector_11" d="M158.48 137.391C158.734 137.391 158.983 137.316 159.194 137.175C159.406 137.034 159.57 136.833 159.667 136.598C159.765 136.363 159.79 136.105 159.741 135.856C159.691 135.606 159.569 135.377 159.389 135.198C159.209 135.018 158.98 134.896 158.731 134.846C158.482 134.796 158.223 134.822 157.989 134.919C157.754 135.016 157.553 135.181 157.412 135.392C157.271 135.604 157.195 135.852 157.195 136.106C157.195 136.447 157.331 136.774 157.572 137.015C157.813 137.256 158.14 137.391 158.48 137.391Z" fill="black"/>
<path id="Vector_12" d="M75.5589 53.0828C75.5188 56.0025 74.4855 58.8215 72.6291 61.0755C72.5861 61.1317 72.5583 61.1981 72.5484 61.2682C72.5385 61.3383 72.5469 61.4098 72.5727 61.4757C72.5986 61.5416 72.641 61.5997 72.6959 61.6444C72.7508 61.6891 72.8163 61.7189 72.8861 61.7308C76.1579 62.3197 79.4906 62.4967 82.8063 62.2577C85.3763 62.2577 88.062 62.5918 88.2547 62.5918C88.332 62.5909 88.4076 62.5688 88.4733 62.5281C88.5389 62.4873 88.5922 62.4293 88.6274 62.3605C92.3282 54.946 93.0863 48.9708 90.8761 44.6275C88.4732 39.8858 83.2561 38.2025 81.8811 32.0473C81.4701 30.1244 81.4701 28.1364 81.8811 26.2134C81.8966 26.1479 81.8958 26.0796 81.8787 26.0144C81.8616 25.9493 81.8288 25.8893 81.7831 25.8398C81.7374 25.7903 81.6803 25.7528 81.6167 25.7306C81.5532 25.7083 81.4851 25.7021 81.4185 25.7123C76.2785 26.5347 74.7622 27.9482 71.6911 28.5393C69.1211 29.0276 68.6585 28.6035 68.3758 28.9762C67.3866 30.3441 66.7589 31.9398 66.5511 33.615C65.6644 41.1837 75.3148 45.18 75.5589 53.0828ZM67.3735 33.6921C67.5565 32.2287 68.0995 30.8336 68.954 29.6315C74.094 29.6315 75.1606 27.6783 80.9816 26.6375C80.6603 28.4908 80.6996 30.3888 81.0973 32.2272C82.5236 38.6522 87.8307 40.4384 90.0923 45.0001C92.1354 49.0479 91.3773 54.689 87.9592 61.7051C81.1744 60.9341 79.2726 62.0521 73.6314 61.0241C75.3678 58.7198 76.3142 55.9166 76.3299 53.0314C76.1372 44.8716 66.5511 40.7853 67.3735 33.6921Z" fill="black"/>
<path id="Vector_13" d="M109.278 9.63671C115.561 9.54676 120.084 10.7418 122.719 13.6331C125.854 17.0512 124.556 20.5335 128.643 24.1958C131.282 26.4592 134.625 27.7353 138.102 27.8056C141.578 27.8759 144.97 26.7361 147.699 24.5813C147.982 24.3628 148.123 22.9622 149.935 19.4413C150.543 18.3573 151.055 17.2222 151.464 16.0489C151.844 14.8411 152.06 13.5877 152.107 12.3224C152.108 12.2506 152.091 12.1797 152.057 12.1167C152.023 12.0536 151.973 12.0006 151.911 11.9629C151.85 11.9253 151.781 11.9042 151.709 11.9019C151.637 11.8996 151.566 11.9161 151.503 11.9497C147.159 14.3141 143.613 14.9181 140.927 13.7487C135.787 11.5128 136.237 3.96986 130.339 1.16856C127.679 -0.116444 124.389 -0.116444 120.573 1.27136H120.47C114.597 5.21631 112.85 5.28056 108.982 8.98136C108.938 9.04017 108.911 9.10963 108.903 9.18254C108.895 9.25544 108.907 9.32914 108.937 9.39598C108.967 9.46283 109.015 9.5204 109.074 9.56273C109.134 9.60505 109.204 9.6306 109.278 9.63671ZM120.843 1.92671C124.428 0.641706 127.486 0.641706 129.94 1.79821C135.492 4.36821 135.08 11.9883 140.554 14.3912C143.33 15.6762 146.902 15.1108 151.181 12.9135C150.796 17.0769 149.1 18.0535 147.031 23.9516C144.805 25.6681 142.124 26.6915 139.321 26.8943C135.618 27.0932 131.975 25.8913 129.118 23.5276C127.506 22.0578 126.373 20.137 125.867 18.0149C125.411 16.1753 124.531 14.468 123.297 13.0291C120.136 9.55961 114.983 8.67296 110.331 8.73721C113.852 5.75601 115.189 5.79456 120.894 1.97811L120.843 1.92671Z" fill="black"/>
<path id="Vector_14" d="M145.334 45.7711C140.194 51.6178 145.681 61.5766 140.927 65.997C139.025 67.7703 135.787 68.2843 131.431 67.4876C131.359 67.4774 131.286 67.4856 131.219 67.5114C131.152 67.5372 131.092 67.5798 131.046 67.6352C130.999 67.6905 130.968 67.7567 130.954 67.8276C130.941 67.8984 130.946 67.9716 130.968 68.0401C132.831 72.9745 134.823 75.1976 142.212 83.383C142.257 83.4349 142.316 83.4741 142.381 83.4966C142.446 83.5191 142.517 83.5243 142.584 83.5115C149.215 82.4064 153.481 80.0292 155.28 76.444C158.236 70.533 153.096 64.5192 156.026 59.4692C157.735 56.5265 161.705 54.7918 167.809 54.3292C167.888 54.3207 167.964 54.2901 168.027 54.2407C168.089 54.1913 168.137 54.1253 168.164 54.0501C168.19 53.9749 168.196 53.8937 168.178 53.8158C168.161 53.7378 168.122 53.6664 168.066 53.6096C162.438 48.2383 161.898 45.6297 156.835 42.3016C156.764 42.2831 156.688 42.2831 156.617 42.3016C151.387 42.0446 147.583 43.2268 145.334 45.7711ZM156.475 43.0597C161.101 46.1437 161.757 48.5595 166.832 53.5839C160.96 54.175 157.079 56.0125 155.267 59.058C152.132 64.455 157.298 70.4945 154.496 76.0714C152.852 79.3738 148.855 81.584 142.636 82.6634C135.209 74.3752 133.641 72.4734 131.97 68.4256C136.275 69.081 139.462 68.4256 141.454 66.6009C146.594 61.8207 141.042 51.862 145.925 46.3236C148.02 43.9978 151.567 42.9055 156.475 43.0597Z" fill="black"/>
<path id="Vector_15" d="M83.8472 52.3759C85.9289 52.3759 86.3144 49.6003 85.9032 47.5829C85.5627 46.3032 84.9439 45.1144 84.091 44.1015C83.238 43.0886 82.1719 42.2765 80.9688 41.7233C79.2212 40.9651 77.9105 41.2992 77.5892 43.1496C77.3919 45.5143 78.1094 47.8647 79.5938 49.716C80.5319 50.8725 82.3309 52.3759 83.8472 52.3759ZM78.4116 43.291C78.5658 42.3658 78.9385 42.173 79.4139 42.173C81.1744 42.173 84.4768 44.743 85.0936 47.7499C85.3378 48.945 85.2864 50.9496 84.3612 51.4379C83.436 51.9262 81.29 50.487 80.2363 49.1891C78.9006 47.5264 78.2482 45.4175 78.4116 43.291Z" fill="black"/>
<path id="Vector_16" d="M131.353 17.9638C132.908 18.6192 135.427 18.8633 136.493 17.5141C137.932 15.7536 136.3 12.5154 134.63 10.9349C133.15 9.56703 131.21 8.80562 129.194 8.80176C127.061 8.90456 126.457 10.4209 126.933 12.4897C127.221 13.6713 127.767 14.7745 128.531 15.7208C129.295 16.6671 130.259 17.4329 131.353 17.9638ZM127.974 10.1125C128.177 9.93212 128.416 9.79568 128.675 9.71167C128.933 9.62765 129.206 9.59786 129.477 9.62416C131.181 9.71652 132.801 10.3926 134.065 11.5388C135.658 13.0423 136.814 15.805 135.851 16.9872C134.887 18.1694 132.895 17.7325 131.649 17.2057C128.346 15.805 126.946 11.2818 127.974 10.1125Z" fill="black"/>
<path id="Vector_17" d="M147.814 69.2478C149.626 69.5176 151.374 67.2303 151.888 65.3928C152.136 64.3435 152.15 63.2524 151.927 62.1973C151.705 61.1422 151.253 60.1491 150.603 59.289C150.372 58.9124 150.06 58.5929 149.688 58.3548C149.316 58.1166 148.895 57.9659 148.457 57.9141C146.632 57.9141 145.334 60.9981 145.129 63.1312C144.923 65.2643 145.758 68.9137 147.814 69.2478ZM145.99 63.1697C146.182 61.1523 147.377 58.7108 148.56 58.7108C149.845 58.7108 152.003 62.1674 151.13 65.1358C150.654 66.7677 149.164 68.5924 147.969 68.3997C146.773 68.2069 145.784 65.3928 145.99 63.1697Z" fill="black"/>
<path id="Vector_18" d="M117.63 32.9723C117.45 32.7795 117.63 32.8438 112.837 32.8438C109.714 32.8438 107.581 36.6988 107.157 39.7057C106.669 43.2523 108.442 48.5465 111.821 48.3409H116.075C116.162 48.3367 116.246 48.3102 116.319 48.2638C117.519 47.4249 118.52 46.3328 119.251 45.0646C119.982 43.7964 120.426 42.3831 120.551 40.9246C120.676 39.466 120.479 37.9978 119.974 36.6237C119.469 35.2496 118.669 34.0031 117.63 32.9723ZM107.979 39.8213C108.339 37.2513 110.177 33.6662 112.824 33.6662C114.995 33.6662 116.897 36.339 117.308 38.8062C118.054 43.2651 113.852 47.9554 111.333 47.5313C109.239 47.1458 107.517 43.2137 107.979 39.8213Z" fill="black"/>
<path id="Vector_19" d="M101.182 76.9064C100.479 75.8816 99.7065 74.9069 98.8688 73.9895C96.8256 71.7407 92.2253 73.4241 89.8738 75.4929C87.9752 77.2214 86.8002 79.6036 86.5842 82.1621C86.5213 82.6891 86.5725 83.2235 86.7344 83.729C86.8962 84.2346 87.1649 84.6993 87.5222 85.0919L89.4112 87.0579C89.681 87.3278 89.7067 87.3149 89.8224 87.3278C96.5815 87.7004 101.747 83.113 101.182 76.9064ZM87.4708 82.2006C87.6929 79.864 88.7679 77.6911 90.4906 76.0969C92.508 74.285 96.4273 72.7944 98.2006 74.4906C99.6912 75.9041 99.1386 79.2708 97.7123 81.4039C96.9456 82.4848 95.9557 83.3883 94.8095 84.0534C93.6633 84.7185 92.3877 85.1296 91.0688 85.2589C90.5478 85.3544 90.0121 85.3348 89.4994 85.2016C88.9867 85.0684 88.5092 84.8249 88.1005 84.4879C87.8472 84.1685 87.6609 83.8014 87.5527 83.4084C87.4445 83.0154 87.4167 82.6046 87.4708 82.2006Z" fill="black"/>
<path id="Vector_20" d="M171.33 85.3232C170.229 84.002 169.035 82.761 167.757 81.6095C165.059 79.9647 160.703 82.2263 158.762 84.8991C157.015 87.3021 156.321 91.1057 157.76 93.046C157.94 93.2902 157.966 93.303 160.33 95.7317C160.472 95.873 160.639 95.873 161.307 95.873C167.475 95.873 172.332 91.4398 171.33 85.3232ZM159.431 85.3874C161.23 82.9074 165.355 80.8385 167.552 82.4705C169.274 83.7555 169.261 87.0836 168.169 89.281C166.267 93.136 160.6 94.6137 158.685 92.8533C157.105 91.4398 157.786 87.649 159.418 85.3874H159.431Z" fill="black"/>
<path id="Vector_21" d="M111.681 40.3608V43.5348C111.424 43.5327 111.171 43.4803 110.935 43.3806C110.833 43.3373 110.718 43.336 110.614 43.3768C110.511 43.4177 110.428 43.4975 110.383 43.599C110.362 43.6488 110.35 43.7022 110.35 43.7563C110.349 43.8104 110.36 43.864 110.38 43.9142C110.4 43.9643 110.43 44.0099 110.468 44.0485C110.506 44.087 110.551 44.1177 110.601 44.1387C110.942 44.286 111.309 44.3604 111.681 44.3572V45.1796C111.679 45.2346 111.688 45.2895 111.708 45.3409C111.728 45.3922 111.758 45.4391 111.796 45.4787C111.835 45.5182 111.881 45.5497 111.931 45.5711C111.982 45.5926 112.037 45.6036 112.092 45.6036C112.202 45.6037 112.308 45.5608 112.387 45.484C112.466 45.4072 112.512 45.3026 112.516 45.1924V44.2672C113.113 44.0768 113.615 43.6675 113.923 43.1217C114.23 42.5758 114.32 41.9337 114.173 41.3246C114.033 40.958 113.811 40.6285 113.524 40.3612C113.236 40.0939 112.892 39.896 112.516 39.7826V36.9556C112.687 36.9687 112.855 37.0032 113.017 37.0584C113.068 37.0792 113.122 37.0897 113.176 37.0893C113.231 37.0889 113.285 37.0776 113.335 37.056C113.386 37.0345 113.431 37.0032 113.469 36.9638C113.507 36.9245 113.537 36.878 113.557 36.8271C113.592 36.7244 113.588 36.6123 113.545 36.5126C113.502 36.4128 113.424 36.3325 113.325 36.2874C113.069 36.1937 112.801 36.1374 112.529 36.1203V35.5421C112.529 35.433 112.485 35.3284 112.408 35.2513C112.331 35.1742 112.227 35.1309 112.117 35.1309C111.899 35.1309 111.706 35.3108 111.706 35.5421V36.2745C111.243 36.3792 110.828 36.6385 110.531 37.0098C110.235 37.3811 110.073 37.8423 110.073 38.3177C110.073 38.793 110.235 39.2543 110.531 39.6256C110.828 39.9969 111.243 40.2561 111.706 40.3608H111.681ZM113.364 41.5559C113.431 41.9111 113.379 42.2785 113.217 42.6013C113.054 42.9242 112.79 43.1845 112.464 43.342V40.772C112.927 40.9519 113.274 41.1961 113.364 41.5559ZM111.732 37.1483V39.4485C111.359 39.2557 111.077 39.0501 111 38.7289C110.944 38.4221 110.985 38.1057 111.116 37.8229C111.247 37.5401 111.462 37.3045 111.732 37.1483Z" fill="black"/>
<path id="Vector_22" d="M89.964 82.3166L89.5914 82.7278C89.55 82.7651 89.517 82.8107 89.4944 82.8616C89.4718 82.9125 89.4601 82.9676 89.4601 83.0233C89.4601 83.079 89.4718 83.1341 89.4944 83.185C89.517 83.2359 89.55 83.2815 89.5914 83.3189C89.6683 83.395 89.7722 83.4377 89.8805 83.4377C89.9887 83.4377 90.0926 83.395 90.1696 83.3189L90.6579 82.7792C91.1396 82.9845 91.6707 83.0453 92.1864 82.954C92.7021 82.8628 93.18 82.6234 93.562 82.2652C93.7938 81.8486 93.9155 81.3798 93.9155 80.9031C93.9155 80.4264 93.7938 79.9575 93.562 79.541L95.6052 77.3051C95.7467 77.5156 95.847 77.7511 95.9007 77.999C95.9128 78.0525 95.9354 78.103 95.9673 78.1476C95.9992 78.1922 96.0396 78.23 96.0863 78.2587C96.133 78.2875 96.185 78.3066 96.2392 78.3149C96.2934 78.3233 96.3487 78.3207 96.4019 78.3074C96.5081 78.28 96.5996 78.2125 96.6571 78.119C96.7146 78.0256 96.7337 77.9134 96.7103 77.8062C96.6134 77.3989 96.4293 77.0175 96.1706 76.6883L96.6075 76.2128C96.6844 76.1337 96.7274 76.0277 96.7274 75.9173C96.7274 75.8069 96.6844 75.7009 96.6075 75.6217C96.5305 75.5456 96.4266 75.5029 96.3183 75.5029C96.2101 75.5029 96.1062 75.5456 96.0292 75.6217L95.5795 76.1229C95.1339 75.8784 94.6191 75.791 94.1178 75.875C93.6166 75.9589 93.1583 76.2092 92.8167 76.5855C92.5767 76.9846 92.4424 77.4383 92.4267 77.9038C92.4109 78.3693 92.5142 78.831 92.7268 79.2454L90.5423 81.6355C90.3162 81.4649 90.1316 81.2452 90.0026 80.993C89.9462 80.8996 89.8569 80.8307 89.7523 80.7998C89.6477 80.7689 89.5352 80.7782 89.4372 80.826C89.3414 80.8802 89.2705 80.9694 89.2393 81.0749C89.2081 81.1804 89.2192 81.2939 89.2701 81.3914C89.4329 81.7457 89.6695 82.0611 89.964 82.3166ZM92.9452 81.7126C92.7192 81.9033 92.45 82.0358 92.1611 82.0985C91.8722 82.1612 91.5722 82.1523 91.2876 82.0724L92.9452 80.2349C93.1508 80.8388 93.2279 81.3785 92.9452 81.7126ZM93.4078 77.1894C93.6011 76.9806 93.852 76.8337 94.1287 76.7673C94.4055 76.701 94.6957 76.7182 94.9627 76.8168L93.3564 78.5901C93.2596 78.3672 93.2151 78.1251 93.2262 77.8823C93.2373 77.6395 93.3038 77.4026 93.4207 77.1894H93.4078Z" fill="black"/>
<path id="Vector_23" d="M166.074 84.7323L166.37 84.334C166.436 84.2471 166.465 84.1373 166.451 84.0289C166.436 83.9204 166.38 83.8222 166.293 83.7557C166.206 83.6893 166.096 83.6601 165.988 83.6745C165.879 83.689 165.781 83.7459 165.714 83.8328L165.316 84.3468C164.897 84.2222 164.451 84.2189 164.031 84.3371C163.61 84.4554 163.231 84.6904 162.939 85.015C162.721 85.4081 162.606 85.8504 162.606 86.3C162.606 86.7497 162.721 87.1919 162.939 87.585L161.307 89.7567C161.052 89.6174 160.842 89.4078 160.703 89.1527C160.675 89.1062 160.638 89.0657 160.595 89.0334C160.551 89.0011 160.502 88.9777 160.45 88.9646C160.397 88.9515 160.342 88.9488 160.289 88.9569C160.235 88.9649 160.184 88.9834 160.137 89.0114C160.09 89.0381 160.048 89.074 160.015 89.1169C159.981 89.1599 159.956 89.2092 159.942 89.2618C159.928 89.3144 159.924 89.3694 159.931 89.4234C159.938 89.4775 159.956 89.5296 159.983 89.5768C160.185 89.9216 160.467 90.2125 160.806 90.4249L160.305 91.0802C160.259 91.1692 160.247 91.2711 160.27 91.3683C160.292 91.4654 160.349 91.5514 160.428 91.6112C160.508 91.671 160.606 91.7008 160.706 91.6954C160.806 91.6899 160.9 91.6496 160.973 91.5814L161.59 90.759C161.982 90.8445 162.389 90.8241 162.771 90.6999C163.153 90.5757 163.494 90.3521 163.761 90.0522C163.965 89.7038 164.08 89.3105 164.096 88.907C164.112 88.5035 164.028 88.1024 163.851 87.7392L165.586 85.4391C165.76 85.5686 165.908 85.7299 166.023 85.9145C166.05 85.9613 166.087 86.002 166.131 86.034C166.175 86.066 166.225 86.0888 166.278 86.1008C166.331 86.1129 166.386 86.1139 166.439 86.104C166.492 86.0941 166.543 86.0733 166.588 86.043C166.635 86.0153 166.675 85.9786 166.708 85.9351C166.74 85.8916 166.763 85.8422 166.776 85.7897C166.789 85.7372 166.792 85.6826 166.784 85.629C166.776 85.5754 166.757 85.524 166.73 85.4776C166.566 85.1856 166.343 84.9316 166.074 84.7323ZM163.581 85.5547C163.732 85.3905 163.917 85.2625 164.124 85.1802C164.331 85.0978 164.554 85.0634 164.776 85.0793L163.491 86.7241C163.418 86.533 163.392 86.3272 163.414 86.1238C163.436 85.9204 163.507 85.7253 163.62 85.5547H163.581ZM163.119 89.4097C162.867 89.6798 162.523 89.845 162.155 89.8723L163.209 88.4717C163.275 88.6337 163.302 88.8094 163.286 88.9838C163.27 89.1582 163.213 89.3264 163.119 89.474V89.4097Z" fill="black"/>
<path id="Vector_24" d="M167.192 215.378C168.67 215.211 170.135 215.031 171.612 214.838C171.688 214.829 171.76 214.798 171.819 214.75C171.879 214.702 171.924 214.639 171.949 214.567C171.974 214.495 171.979 214.417 171.963 214.342C171.946 214.268 171.91 214.199 171.857 214.144C169.301 211.5 166.894 208.716 164.648 205.805C160.728 200.665 158.672 197.478 144.088 172.15C144.05 172.088 143.998 172.037 143.935 172.001C143.872 171.965 143.8 171.945 143.728 171.945C143.728 171.945 114.918 172.395 110.164 172.395C103.186 172.266 100.937 172.035 100.154 172.022C99.7295 172.022 99.7295 172.086 99.6524 172.253C96.7849 178.197 93.5133 183.937 89.8607 189.434C86.6482 194.227 83.8469 197.773 78.7583 204.211C71.8707 212.949 69.5577 215.416 68.8766 216.29C68.414 216.881 68.7481 217.164 69.018 217.177L73.8496 217.357L70.4058 223.178C70.3657 223.239 70.3431 223.31 70.3406 223.383C70.3381 223.456 70.3557 223.528 70.3915 223.592C70.4274 223.655 70.48 223.708 70.5437 223.744C70.6074 223.78 70.6797 223.797 70.7527 223.795C126.92 224.026 144.884 224 171.587 221.404C171.662 221.397 171.734 221.369 171.795 221.324C171.855 221.278 171.902 221.217 171.93 221.147C171.958 221.076 171.966 220.999 171.953 220.925C171.94 220.85 171.907 220.78 171.857 220.723L167.192 215.378ZM90.5417 189.819C94.1699 184.377 97.42 178.693 100.269 172.806C113.325 173.5 118.683 173.127 143.522 172.806C147.377 179.552 151.438 186.504 155.524 193.443C159.687 200.95 164.782 207.901 170.687 214.131C143.612 217.524 124.8 217.524 101.143 217.138C87.4192 216.92 76.728 216.586 69.9046 216.329C75.1217 210.109 85.6202 197.195 90.5417 189.819Z" fill="black"/>
<path id="Vector_25" d="M102.313 181.917C106.618 182.276 110.755 182.443 114.906 182.443H133.705C133.804 182.426 133.893 182.375 133.957 182.298C134.021 182.222 134.056 182.125 134.056 182.026C134.056 181.926 134.021 181.83 133.957 181.753C133.893 181.677 133.804 181.625 133.705 181.608C117.412 181.492 113.145 182.058 102.377 181.146C102.3 181.173 102.232 181.222 102.182 181.286C102.132 181.351 102.102 181.429 102.095 181.51C102.089 181.592 102.106 181.673 102.144 181.745C102.183 181.818 102.241 181.877 102.313 181.917Z" fill="black"/>
<path id="Vector_26" d="M97.4424 190.256C110.292 190.809 117.745 190.012 135.208 189.691C135.263 189.689 135.316 189.677 135.365 189.655C135.414 189.633 135.459 189.601 135.496 189.562C135.533 189.522 135.561 189.476 135.581 189.425C135.6 189.375 135.609 189.321 135.607 189.267C135.595 189.161 135.546 189.063 135.468 188.99C135.39 188.917 135.289 188.874 135.183 188.869C118.555 189.177 109.958 189.974 97.4809 189.434C97.3718 189.434 97.2673 189.477 97.1901 189.554C97.113 189.632 97.0697 189.736 97.0697 189.845C97.0697 189.954 97.113 190.059 97.1901 190.136C97.2673 190.213 97.3718 190.256 97.4809 190.256H97.4424Z" fill="black"/>
<path id="Vector_27" d="M137.817 195.255C110.665 196.257 112.785 196.733 94.8467 196.54C94.7385 196.54 94.6344 196.581 94.5555 196.655C94.4767 196.729 94.4292 196.83 94.4226 196.938C94.4224 197.05 94.4649 197.157 94.5414 197.239C94.6178 197.32 94.7224 197.369 94.8338 197.375C108.699 197.761 114.918 197.003 137.843 196.155C137.962 196.151 138.075 196.101 138.157 196.014C138.239 195.927 138.283 195.811 138.28 195.692C138.276 195.573 138.226 195.46 138.139 195.378C138.052 195.296 137.936 195.252 137.817 195.255Z" fill="black"/>
<path id="Vector_28" d="M154.239 204.52C153.538 204.23 152.761 204.18 152.029 204.378C151.078 204.661 150.847 205.316 149.909 205.933C148.971 206.55 147.699 206.923 147.506 206.743C147.313 206.563 147.57 205.702 147.66 205.381C147.814 204.828 147.943 204.404 147.545 204.211C146.786 203.851 146.491 205.496 144.795 206.974C143.368 208.259 141.184 209.159 140.323 208.465C139.77 208.015 139.783 206.884 139.912 206.28C140.244 205.779 140.541 205.256 140.798 204.712C140.831 204.625 140.834 204.529 140.807 204.439C140.78 204.35 140.724 204.272 140.647 204.217C140.571 204.163 140.479 204.135 140.385 204.139C140.292 204.143 140.202 204.177 140.13 204.237C139.661 204.702 139.324 205.283 139.153 205.92C138.958 206.193 138.748 206.454 138.524 206.704C137.033 208.388 134.669 209.583 133.859 209.004C133.684 208.807 133.556 208.573 133.484 208.319C133.413 208.066 133.401 207.799 133.448 207.539C133.768 207.192 134.065 206.822 134.335 206.434C135.026 205.554 135.501 204.524 135.723 203.427C135.7 203.3 135.631 203.186 135.53 203.106C134.887 202.656 133.821 204.057 133.435 204.738C133.01 205.491 132.739 206.321 132.639 207.18C130.788 209.107 128.257 210.366 127.28 209.673C126.74 209.3 126.586 208.272 126.817 206.64C127.084 205.047 127.925 203.607 129.182 202.592C129.258 202.515 129.301 202.411 129.301 202.303C129.301 202.195 129.258 202.091 129.182 202.014C129.111 201.928 129.01 201.873 128.899 201.861C128.789 201.849 128.678 201.881 128.591 201.95C127.178 203.094 126.236 204.717 125.944 206.511C125.828 207.334 125.52 209.506 126.74 210.366C128.282 211.446 131.109 209.673 132.587 208.336C133.063 211.407 136.853 209.621 139.012 207.411C139.333 211.176 144.152 209.403 146.619 206.203C146.388 208.246 148.611 207.822 150.359 206.64C150.714 206.398 151.045 206.122 151.348 205.818C151.588 205.533 151.898 205.316 152.248 205.188C152.802 205.046 153.388 205.086 153.918 205.304C153.969 205.324 154.023 205.334 154.077 205.333C154.132 205.333 154.186 205.321 154.236 205.3C154.286 205.278 154.331 205.247 154.369 205.208C154.408 205.169 154.438 205.123 154.458 205.072C154.478 205.022 154.488 204.968 154.487 204.913C154.487 204.858 154.475 204.805 154.454 204.755C154.432 204.704 154.401 204.659 154.362 204.621C154.323 204.583 154.277 204.553 154.227 204.533L154.239 204.52Z" fill="black"/>
<path id="Vector_29" d="M96.967 118.939C97.0461 119.016 97.1522 119.059 97.2625 119.059C97.3729 119.059 97.4789 119.016 97.5581 118.939C97.5973 118.902 97.6286 118.857 97.65 118.807C97.6714 118.757 97.6824 118.704 97.6824 118.65C97.6824 118.596 97.6714 118.542 97.65 118.492C97.6286 118.443 97.5973 118.398 97.5581 118.36C96.5044 117.414 95.757 116.175 95.4113 114.802C95.0657 113.428 95.1375 111.983 95.6177 110.65C95.6355 110.599 95.6429 110.545 95.6395 110.49C95.6362 110.436 95.6222 110.383 95.5983 110.334C95.5745 110.285 95.5412 110.241 95.5004 110.205C95.4597 110.169 95.4122 110.141 95.3607 110.124C95.3093 110.106 95.2548 110.099 95.2005 110.102C95.1461 110.105 95.093 110.119 95.0441 110.143C94.9952 110.167 94.9514 110.2 94.9153 110.241C94.8793 110.282 94.8516 110.329 94.8339 110.381C94.3003 111.858 94.2182 113.46 94.598 114.984C94.9779 116.508 95.8025 117.885 96.967 118.939Z" fill="black"/>
<path id="Vector_30" d="M37.9856 85.7727C38.081 85.0443 38.4292 84.3726 38.9694 83.8747C39.5095 83.3768 40.2073 83.0844 40.9411 83.0485C41.4812 83.0721 42.005 83.2409 42.4573 83.5372C42.9096 83.8334 43.2736 84.2461 43.5111 84.7318C43.5605 84.8307 43.6471 84.9058 43.752 84.9407C43.8568 84.9757 43.9712 84.9676 44.07 84.9182C44.1689 84.8687 44.244 84.7821 44.279 84.6773C44.3139 84.5724 44.3058 84.458 44.2564 84.3592C43.9438 83.7325 43.4664 83.2029 42.8755 82.8271C42.2847 82.4512 41.6026 82.2435 40.9025 82.2261C39.9704 82.2619 39.0805 82.6236 38.3878 83.2482C37.695 83.8729 37.2435 84.7208 37.1118 85.6442C37.0947 85.76 37.1244 85.8779 37.1943 85.9719C37.2642 86.0659 37.3685 86.1283 37.4844 86.1453C37.6003 86.1624 37.7182 86.1327 37.8122 86.0628C37.9061 85.9929 37.9685 85.8885 37.9856 85.7727Z" fill="black"/>
<path id="Vector_31" d="M46.9675 130.491C47.021 130.404 47.0415 130.301 47.0253 130.201C47.0091 130.1 46.9573 130.009 46.8794 129.943C46.8014 129.878 46.7025 129.843 46.6008 129.844C46.499 129.846 46.4011 129.884 46.325 129.951C45.7859 130.674 44.9989 131.173 44.1148 131.352C42.1231 131.622 39.3732 129.514 38.191 125.479C38.1758 125.427 38.1504 125.378 38.1164 125.336C38.0823 125.293 38.0402 125.258 37.9925 125.232C37.9448 125.205 37.8923 125.189 37.8382 125.183C37.7841 125.177 37.7293 125.181 37.677 125.197C37.6246 125.212 37.5758 125.237 37.5333 125.271C37.4908 125.305 37.4554 125.347 37.4292 125.395C37.4029 125.443 37.3863 125.495 37.3803 125.549C37.3743 125.604 37.3791 125.658 37.3943 125.711C38.8977 130.838 43.5494 134.526 46.9675 130.491Z" fill="black"/>
<path id="Vector_32" d="M190.965 89.0368C191.314 88.4655 191.776 87.9707 192.321 87.5821C192.866 87.1935 193.485 86.919 194.139 86.7752C196.58 86.4668 199.78 88.9597 200.731 93.5471C200.742 93.6004 200.763 93.6511 200.793 93.6961C200.823 93.7412 200.863 93.7798 200.908 93.8096C200.953 93.8395 201.004 93.8601 201.058 93.8702C201.111 93.8803 201.166 93.8797 201.219 93.8684C201.273 93.8594 201.325 93.8393 201.371 93.8093C201.417 93.7794 201.456 93.7403 201.486 93.6944C201.517 93.6486 201.537 93.597 201.546 93.5429C201.555 93.4888 201.553 93.4334 201.54 93.3801C200.255 87.0836 194.177 82.9844 190.284 88.5613C190.253 88.6067 190.231 88.6578 190.22 88.7116C190.209 88.7655 190.209 88.821 190.219 88.8749C190.23 88.9288 190.252 88.98 190.283 89.0255C190.314 89.0709 190.353 89.1097 190.399 89.1396C190.443 89.171 190.492 89.1934 190.545 89.2052C190.597 89.2171 190.651 89.2183 190.704 89.2087C190.757 89.1991 190.807 89.1789 190.852 89.1494C190.897 89.1198 190.935 89.0815 190.965 89.0368Z" fill="black"/>
<path id="Vector_33" d="M190.22 136.312C191.987 136.186 193.707 135.678 195.259 134.824C196.812 133.97 198.162 132.79 199.215 131.365C200.357 129.658 201.015 127.672 201.117 125.621C201.12 125.566 201.112 125.512 201.094 125.46C201.075 125.409 201.047 125.362 201.009 125.322C200.972 125.283 200.927 125.251 200.877 125.229C200.827 125.208 200.773 125.197 200.718 125.197C200.611 125.196 200.507 125.235 200.426 125.306C200.345 125.377 200.294 125.476 200.281 125.582C200.192 127.481 199.588 129.32 198.534 130.902C197.545 132.229 196.281 133.326 194.828 134.118C193.375 134.91 191.768 135.378 190.117 135.49C190.008 135.503 189.909 135.56 189.841 135.646C189.774 135.733 189.743 135.843 189.757 135.952C189.771 136.061 189.827 136.16 189.914 136.228C190.001 136.295 190.111 136.326 190.22 136.312Z" fill="black"/>
<path id="Vector_34" d="M244.575 164.209H229.155L216.048 127.882L227.073 53.2239C227.087 53.1359 227.072 53.0457 227.031 52.9669C226.989 52.8881 226.923 52.8249 226.842 52.787C221.548 50.3327 219.813 49.4846 219.132 49.2533C218.785 49.1376 218.746 49.2533 218.644 49.2533L186.12 80.6201C185.953 80.7743 186.12 79.9262 184.167 95.0764C173.887 98.1475 160.318 102.221 152.042 104.675C151.935 104.708 151.845 104.782 151.792 104.88C151.739 104.979 151.727 105.095 151.759 105.202L152.209 106.68L148.457 108.299C148.376 108.332 148.308 108.389 148.261 108.463C148.215 108.537 148.194 108.623 148.2 108.71L148.393 110.779C145.651 110.199 143.038 109.123 140.683 107.605C137.257 105.311 133.347 103.842 129.259 103.313C126.409 103.081 123.543 103.467 120.855 104.444C118.953 103.464 116.976 102.635 114.944 101.964C113.121 101.296 111.168 101.063 109.239 101.283C108.455 101.411 107.71 101.63 103.713 103.634C102.171 104.405 100.873 105.061 99.9611 105.549L92.3282 105.292C92.321 105.172 92.321 105.052 92.3282 104.932C92.3409 104.836 92.3213 104.739 92.2724 104.655C92.2236 104.571 92.1483 104.506 92.0583 104.47L87.972 103.005C88.1134 102.375 88.229 101.72 88.3575 101.129C88.3807 101.027 88.3627 100.919 88.3074 100.83C88.252 100.741 88.1639 100.678 88.062 100.653C82.8449 99.1498 60.473 92.6349 53.9452 90.7074C52.4932 80.0547 52.6602 80.6715 52.4675 80.5302C25.0584 53.8922 20.7794 49.9343 20.0598 49.3432C19.8285 49.1376 19.7514 49.1505 19.5329 49.2276C18.9804 49.4332 17.387 50.217 11.8229 52.7999C11.7411 52.8374 11.6734 52.8999 11.6295 52.9785C11.5856 53.057 11.5679 53.1475 11.5788 53.2368L22.7197 128.101L9.70268 164.209H0.424975C0.326774 164.227 0.237806 164.278 0.173703 164.354C0.109601 164.431 0.0744629 164.527 0.0744629 164.627C0.0744629 164.727 0.109601 164.823 0.173703 164.9C0.237806 164.976 0.326774 165.027 0.424975 165.045H9.41998L3.13633 182.469C0.707676 188.817 4.53698 194.24 9.41998 194.394C61.3083 196.347 57.8002 196.09 57.9801 195.987L65.3303 190.976C65.3867 190.938 65.4327 190.886 65.4641 190.825C65.4955 190.765 65.5114 190.697 65.5102 190.629V187.673C65.5102 187.564 65.4669 187.46 65.3898 187.383C65.3127 187.306 65.2081 187.262 65.099 187.262L22.784 187.185C19.7128 187.185 16.6802 183.896 17.9652 179.604L23.2466 165.045H28.3095L30.1213 177.214C30.1368 177.311 30.1868 177.4 30.2623 177.464C30.3378 177.527 30.4337 177.562 30.5325 177.561L38.7951 176.931L64.8677 170.352C64.9677 170.327 65.0549 170.266 65.112 170.18C65.1691 170.095 65.192 169.991 65.1761 169.889L64.5336 165.045H174.208L173.502 169.953C173.492 170.056 173.519 170.159 173.578 170.243C173.637 170.328 173.723 170.389 173.823 170.416C199.343 176.622 200.075 176.841 200.217 176.841L208.441 177.471C208.537 177.469 208.63 177.433 208.703 177.37C208.776 177.306 208.824 177.219 208.839 177.124L210.625 165.019H215.765L221.034 179.552C221.346 180.46 221.436 181.43 221.297 182.379C221.159 183.329 220.795 184.232 220.237 185.014C219.767 185.662 219.157 186.195 218.451 186.574C217.746 186.952 216.964 187.166 216.164 187.198H173.9C173.79 187.213 173.688 187.266 173.613 187.348C173.538 187.431 173.494 187.537 173.489 187.648V190.603C173.491 190.671 173.508 190.737 173.539 190.797C173.57 190.857 173.615 190.91 173.669 190.95L181.032 195.962C181.199 196.077 177.781 196.322 229.579 194.368C234.411 194.188 238.227 188.791 235.798 182.456L229.515 165.019H244.575C244.661 164.992 244.737 164.938 244.79 164.865C244.844 164.793 244.873 164.705 244.873 164.614C244.873 164.524 244.844 164.436 244.79 164.363C244.737 164.29 244.661 164.236 244.575 164.209ZM191.402 130.799C192.936 130.059 194.287 128.988 195.359 127.664C204.226 113.182 198.662 91.4527 198.611 91.2342C198.597 91.1807 198.573 91.1304 198.54 91.0867C198.506 91.0429 198.464 91.0066 198.416 90.98C198.367 90.9535 198.314 90.9372 198.259 90.9323C198.204 90.9274 198.149 90.934 198.097 90.9515L187.585 94.0098L189.063 81.6481L214.647 60.4713L202.478 142.262L180.89 144.497L182.342 133.922L191.402 130.799ZM152.466 107.528L161.782 137.995L157.054 139.28C152.633 129.732 149.932 119.48 149.074 108.993L152.466 107.528ZM140.207 108.363C142.734 109.992 145.546 111.125 148.496 111.704C149.273 118.584 150.834 125.353 153.147 131.879C152.246 131.777 151.359 131.579 150.5 131.288C149.997 129.691 149.205 128.202 148.161 126.893C147.288 125.736 144.975 122.665 142.225 123.166C141.715 123.264 141.231 123.463 140.8 123.753C140.37 124.042 140.002 124.415 139.719 124.85C139.488 125.373 139.377 125.94 139.392 126.511C139.408 127.082 139.55 127.643 139.809 128.152C138.998 127.539 137.977 127.271 136.969 127.407C136.264 127.57 135.606 127.895 135.048 128.357C134.49 128.819 134.048 129.404 133.757 130.067C133.318 131.111 133.264 132.276 133.602 133.357C133.066 132.961 132.451 132.686 131.798 132.549C131.146 132.413 130.472 132.418 129.822 132.566C129.172 132.714 128.561 132.999 128.032 133.404C127.502 133.809 127.066 134.323 126.753 134.911C126.47 135.515 126.323 136.173 126.323 136.839C126.323 137.505 126.47 138.163 126.753 138.766C125.794 138.368 124.73 138.3 123.727 138.572C122.725 138.844 121.841 139.441 121.215 140.27C120.869 140.862 120.666 141.527 120.621 142.212C120.576 142.897 120.692 143.582 120.958 144.215C119.68 145.365 118.111 146.143 116.422 146.464C115.464 146.772 114.425 146.717 113.505 146.309C113.005 145.954 112.594 145.489 112.302 144.95C112.01 144.411 111.846 143.812 111.822 143.2C112.166 142.994 112.478 142.739 112.747 142.441C114.032 141.156 116.782 138.586 121.292 134.513C121.368 134.436 121.411 134.332 121.411 134.224C121.411 134.116 121.368 134.012 121.292 133.935C121.213 133.858 121.107 133.815 120.997 133.815C120.886 133.815 120.78 133.858 120.701 133.935C116.178 137.97 113.364 140.578 112.104 141.915C111.499 142.559 110.693 142.979 109.818 143.107C108.943 143.236 108.051 143.064 107.286 142.621C106.696 142.192 106.25 141.593 106.006 140.905C105.763 140.217 105.734 139.471 105.923 138.766C106.403 138.566 106.856 138.307 107.273 137.995C109.843 136.042 115.664 129.399 116.795 128.088C116.834 128.051 116.865 128.006 116.887 127.956C116.908 127.907 116.919 127.853 116.919 127.799C116.919 127.745 116.908 127.691 116.887 127.642C116.865 127.592 116.834 127.547 116.795 127.51C116.718 127.434 116.614 127.391 116.505 127.391C116.397 127.391 116.293 127.434 116.216 127.51C115.086 128.795 109.316 135.4 106.81 137.289C105.525 138.265 102.955 138.972 101.747 137.905C100.539 136.839 101.118 134.05 101.156 133.896C101.383 133.13 101.783 132.427 102.325 131.84C103.456 130.555 109.933 123.231 111.462 121.496C113.665 121.478 115.825 120.882 117.726 119.768C119.627 118.654 121.202 117.061 122.294 115.148C124.158 120.07 129.85 124.22 134.412 122.755C135.273 122.473 136.249 122.164 136.622 121.265C137.393 119.389 134.695 117.834 130.506 112.488C128.064 109.366 127.768 108.35 125.725 106.911C124.486 106.173 123.198 105.521 121.87 104.958C128.629 102.838 134.283 104.714 140.207 108.312V108.363ZM121.896 140.745C122.3 140.227 122.829 139.82 123.434 139.564C124.039 139.307 124.699 139.21 125.353 139.28C126.217 139.39 127.019 139.788 127.627 140.411C128.153 141.248 128.737 142.047 129.375 142.801C130.557 144.806 131.778 148.211 130.326 149.65C129.804 150.136 129.123 150.414 128.411 150.434C126.137 150.537 124.479 148.43 123.746 147.479C121.575 144.69 120.907 142.236 121.896 140.745ZM123.567 148.597C123.094 148.887 122.564 149.069 122.013 149.131C121.462 149.194 120.905 149.134 120.38 148.956C119.9 148.76 119.465 148.468 119.101 148.099C118.737 147.731 118.45 147.292 118.259 146.81C119.337 146.394 120.336 145.799 121.215 145.05C121.847 146.326 122.637 147.518 123.567 148.597ZM129.992 142.326C129.49 141.454 128.896 140.64 128.218 139.897C127.332 138.458 126.663 136.736 127.422 135.335C127.764 134.718 128.265 134.204 128.873 133.845C129.48 133.486 130.172 133.295 130.878 133.292C131.61 133.357 132.317 133.59 132.943 133.973C133.57 134.357 134.099 134.88 134.489 135.502C134.781 135.985 135.103 136.448 135.453 136.89C136.661 138.766 137.92 141.054 136.969 143.123C136.744 143.661 136.393 144.138 135.946 144.514C135.499 144.889 134.969 145.152 134.399 145.281C132.664 145.474 131.161 143.688 130.056 142.326H129.992ZM136.16 136.453C136.057 136.325 135.646 135.657 135.183 135.04C134.688 134.394 134.362 133.636 134.235 132.832C134.107 132.029 134.181 131.207 134.45 130.44C134.68 129.901 135.031 129.423 135.477 129.043C135.923 128.664 136.452 128.394 137.02 128.255C139.051 127.934 140.773 130.08 141.916 131.789C144.216 135.168 143.972 137.083 143.368 138.085C142.947 138.749 142.298 139.238 141.544 139.46C139.346 140.077 137.098 137.558 136.224 136.415L136.16 136.453ZM142.585 131.313C141.415 129.656 139.449 127.021 140.361 125.261C140.805 124.596 141.493 124.134 142.276 123.976C144.525 123.565 146.619 126.328 147.416 127.381C148.701 129.142 150.59 132.251 149.382 134.102C149.157 134.438 148.86 134.72 148.514 134.929C148.168 135.137 147.78 135.267 147.378 135.31C145.63 135.451 144.127 133.344 142.674 131.275L142.585 131.313ZM92.1226 106.115C100.552 106.397 100.051 106.41 100.192 106.333C101.118 105.845 102.441 105.164 104.047 104.367C109.342 101.797 109.791 101.437 114.687 102.761C116.785 103.47 118.829 104.329 120.804 105.331C122.335 105.978 123.824 106.721 125.263 107.554C127.833 109.404 127.344 110.458 133.654 117.384C135.401 119.312 136.224 120.185 135.877 120.905C135.53 121.624 134.926 121.676 134.142 121.933C131.199 122.884 128.18 120.982 126.638 119.761C124.802 118.253 123.46 116.23 122.783 113.953C122.758 113.875 122.711 113.806 122.647 113.755C122.584 113.704 122.506 113.674 122.425 113.667C122.344 113.66 122.262 113.677 122.191 113.717C122.12 113.756 122.062 113.816 122.025 113.889C120.999 115.954 119.426 117.696 117.476 118.926C112.002 122.267 105.911 119.761 104.626 119.234C104.577 119.21 104.524 119.196 104.469 119.193C104.415 119.19 104.36 119.197 104.309 119.215C104.258 119.233 104.21 119.261 104.17 119.298C104.129 119.334 104.096 119.378 104.073 119.427C104.029 119.528 104.026 119.642 104.064 119.745C104.103 119.848 104.179 119.932 104.279 119.98C106.189 120.82 108.234 121.312 110.318 121.432C109.033 122.961 102.788 130.003 101.67 131.249C101.118 131.814 100.681 132.482 100.385 133.215C97.3825 132.375 94.56 130.99 92.0583 129.129C90.2797 128.924 88.5449 128.438 86.9183 127.69C89.0392 120.597 90.7765 113.394 92.1226 106.115ZM87.805 103.84L91.4544 105.125C89.6426 115.369 87.0653 125.464 83.7444 135.323L79.491 134.269C82.8533 124.297 85.6294 114.136 87.805 103.84ZM56.0269 129.784L57.9801 144.6L36.2893 142.21L24.0947 60.5998L49.6662 81.9437L50.4886 89.6537L39.8488 86.5055C39.7742 86.4855 39.6956 86.4857 39.6211 86.5061C39.5467 86.5264 39.4789 86.5661 39.4247 86.6211C39.2834 86.7881 35.7882 90.6817 35.3898 102.208C35.0943 110.792 36.5977 118.785 42.6758 125.094C42.9328 125.402 54.4978 129.283 56.0269 129.784ZM64.675 190.385L57.6075 195.191L9.41998 193.572C5.17948 193.392 1.70998 188.612 3.93303 182.765C6.64438 175.492 20.3939 137.122 23.0281 129.823L23.7477 134.603L6.65723 182.97C5.16663 188.11 7.01702 191.657 12.2984 191.965L56.6309 193.623C56.8108 193.623 56.1554 194.021 64.6236 188.483L64.675 190.385ZM17.13 179.321C16.7774 180.352 16.6775 181.453 16.8385 182.53C16.9994 183.608 17.4167 184.632 18.0552 185.515C18.5938 186.277 19.3004 186.905 20.1203 187.35C20.9402 187.796 21.8516 188.047 22.784 188.085H63.6598L56.5152 192.762L12.3369 191.117C7.58243 190.899 6.11753 187.802 7.45393 183.266L23.979 136.415L26.549 153.467C21.8973 166.15 30.4169 142.647 17.13 179.347V179.321ZM23.555 164.184L26.8446 155.099L28.2067 164.184H23.555ZM38.975 176.006L20.2911 50.731L51.825 81.0185L53.11 90.4504L51.3881 89.9364C50.4243 80.9414 50.5528 81.5325 50.3601 81.3783L23.7863 59.2249C23.7202 59.1736 23.6404 59.143 23.557 59.1369C23.4735 59.1309 23.3902 59.1496 23.3174 59.1908C23.2446 59.232 23.1856 59.2939 23.1478 59.3685C23.1101 59.4432 23.0953 59.5273 23.1052 59.6104L35.5183 142.647C35.5338 142.736 35.577 142.817 35.6417 142.879C35.7063 142.942 35.7891 142.982 35.8781 142.994L58.417 145.487C58.4794 145.491 58.542 145.482 58.6003 145.459C58.6585 145.436 58.7111 145.401 58.754 145.355C58.797 145.31 58.8294 145.255 58.8489 145.196C58.8684 145.137 58.8745 145.074 58.8668 145.011L56.965 130.067L59.1366 130.774L64.2766 169.632L38.975 176.006ZM64.3152 164.209L59.9076 131.056C65.96 132.984 77.9876 136.53 78.3988 136.53C78.4847 136.531 78.5688 136.506 78.6399 136.458C78.7111 136.409 78.7659 136.341 78.7971 136.261L79.2083 135.053C83.7958 136.184 83.8729 136.222 84.0014 136.222C84.0893 136.224 84.1754 136.197 84.2471 136.146C84.3188 136.095 84.3723 136.023 84.3997 135.939C85.2221 133.485 86.0188 131.018 86.7513 128.525C88.384 129.256 90.1162 129.741 91.8913 129.964C94.3678 131.848 97.1873 133.231 100.192 134.038C99.3443 137.738 101.336 140.013 104.985 139.011C104.886 139.607 104.916 140.218 105.072 140.802C105.229 141.386 105.51 141.93 105.895 142.396C106.279 142.863 106.76 143.241 107.304 143.506C107.847 143.771 108.441 143.916 109.046 143.932C109.701 143.927 110.349 143.805 110.961 143.572C111.027 144.266 111.247 144.936 111.605 145.534C111.963 146.132 112.45 146.643 113.03 147.029C114.118 147.545 115.36 147.636 116.512 147.286C116.816 147.231 117.116 147.158 117.411 147.067C117.635 147.707 118.003 148.286 118.488 148.76C118.972 149.233 119.56 149.589 120.204 149.798C120.849 150.007 121.533 150.064 122.203 149.965C122.873 149.866 123.511 149.613 124.068 149.226C124.59 149.869 125.251 150.385 126.001 150.737C126.75 151.088 127.57 151.266 128.398 151.257C129.309 151.23 130.179 150.869 130.84 150.241C132.125 148.956 131.855 146.759 131.187 144.857C131.603 145.294 132.109 145.636 132.671 145.858C133.232 146.079 133.835 146.177 134.438 146.142C135.158 146.007 135.834 145.695 136.406 145.236C136.978 144.776 137.427 144.183 137.714 143.508C138 142.807 138.136 142.054 138.114 141.297C138.092 140.54 137.912 139.797 137.586 139.113C138.146 139.619 138.816 139.989 139.542 140.194C140.269 140.399 141.033 140.434 141.775 140.296C142.729 140.019 143.547 139.402 144.075 138.561C144.389 137.995 144.576 137.367 144.625 136.722C144.674 136.077 144.583 135.428 144.358 134.821C144.755 135.248 145.239 135.584 145.778 135.806C146.317 136.028 146.898 136.131 147.48 136.106C147.95 136.069 148.408 135.936 148.824 135.715C149.24 135.493 149.607 135.189 149.901 134.82C150.195 134.452 150.41 134.027 150.533 133.572C150.656 133.116 150.684 132.641 150.616 132.174C151.519 132.45 152.45 132.626 153.391 132.701C154.291 135.143 155.293 137.546 156.398 139.91C156.431 139.981 156.484 140.04 156.55 140.082C156.616 140.123 156.693 140.143 156.771 140.141C156.899 140.141 156.951 140.141 161.911 138.741C162.476 140.63 162.451 140.681 162.669 140.784C162.888 140.887 161.821 141.221 178.256 135.387L174.144 164.222L64.3152 164.209ZM199.818 175.941L174.273 169.696L179.258 135.13L181.469 134.346L180.004 145.011C180.004 145.268 180.107 145.461 180.479 145.448C181.469 145.448 185.504 144.922 202.89 143.148C202.982 143.141 203.068 143.102 203.136 143.039C203.204 142.976 203.248 142.893 203.262 142.801L215.624 59.6232C215.638 59.5404 215.627 59.4552 215.591 59.3791C215.555 59.3031 215.497 59.2398 215.424 59.1978C215.351 59.1558 215.267 59.1371 215.184 59.1442C215.1 59.1514 215.02 59.184 214.956 59.2377L188.408 81.1598C188.408 81.1598 188.331 81.1598 188.279 81.4425C188.151 82.1107 187.881 84.5651 186.724 94.2925L185.041 94.7937L186.75 81.1598L218.348 50.7824C215.778 68.3869 202.761 156.358 199.857 175.941H199.818ZM210.651 164.209L212.026 154.932L215.393 164.209H210.651ZM216.138 188.008C219.736 188.008 223.218 184.153 221.741 179.321L212.321 153.12L214.891 136.132L231.481 183.189C232.766 187.686 231.404 190.899 226.611 191.066L182.42 192.711L175.185 188.046C231.339 188.046 211.949 188.008 216.176 188.008H216.138ZM234.95 182.778C237.109 188.599 233.73 193.392 229.476 193.572L181.302 195.216L174.285 190.385V188.457L181.995 193.495C182.163 193.61 179.014 193.931 226.546 191.901C231.507 191.696 233.781 188.406 232.175 182.906L215.071 134.243L215.765 129.566C223.835 151.835 226.585 160.213 234.989 182.778H234.95Z" fill="black"/>
</g>
</svg>
