<svg width="155" height="142" viewBox="0 0 155 142" fill="none" xmlns="http://www.w3.org/2000/svg">
<g id="hr-human-resources">
<g id="hr-human-resources--work-office-hr-human-resources">
<g id="computer">
<path id="vector" d="M147.367 26.6021V115.574C147.367 119.17 144.449 122.087 140.852 122.087H14.0004C10.4017 122.087 7.48584 119.17 7.48584 115.574V26.6021C7.48584 23.0057 10.4017 20.0898 14.0004 20.0898H140.852C144.449 20.0898 147.367 23.0057 147.367 26.6021Z" fill="#FFD997"/>
<path id="vector_2" d="M13.9989 105.777L14.0066 26.6035L140.852 26.6113L140.843 105.777H13.9989Z" fill="white"/>
<path id="vector_3" d="M140.843 106.122L13.7548 106.021C13.5914 105.855 13.6572 106.018 13.6611 26.6041C13.6611 26.4144 13.8167 26.2588 14.0064 26.2588L140.85 26.2665C141.044 26.2665 141.196 26.4268 141.196 26.6118L141.188 105.778C141.188 105.967 141.032 106.123 140.843 106.123V106.122ZM14.344 105.431H140.497L140.505 26.9564L14.3517 26.9486L14.344 105.431Z" fill="black"/>
<path id="vector_4" d="M97.2214 144.634H57.63L61.468 122.087H93.3811L97.2214 144.634Z" fill="white"/>
<path id="vector_5" d="M140.852 19.7444H13.9985C10.2155 19.7444 7.13867 22.8213 7.13867 26.6043V115.574C7.13867 119.357 10.2155 122.433 13.9985 122.433H61.0599L57.3388 144.288H37.7564C37.5668 144.288 37.4111 144.444 37.4111 144.634C37.4111 144.823 37.5668 144.979 37.7564 144.979H117.093C117.283 144.979 117.439 144.823 117.439 144.634C117.439 144.444 117.283 144.288 117.093 144.288H97.5093L93.7882 122.433H140.851C144.634 122.433 147.711 119.358 147.711 115.575V26.6035C147.711 22.8205 144.634 19.7437 140.851 19.7437L140.852 19.7444ZM96.8125 144.289H58.0403L61.7613 122.433H93.0922L96.8132 144.289H96.8125ZM147.021 115.576C147.021 118.977 144.253 121.745 140.852 121.745H13.9985C10.5973 121.745 7.8293 118.977 7.8293 115.576V26.6035C7.8293 23.2022 10.5973 20.4343 13.9985 20.4343H140.852C144.253 20.4343 147.021 23.2022 147.021 26.6035V115.576Z" fill="black"/>
<path id="vector_6" d="M94.7138 129.955L61.2607 123.311L61.4682 122.087H93.3813L94.7138 129.955Z" fill="black"/>
<path id="vector_7" d="M53.1844 116.754H36.8748C36.4604 116.754 36.1245 117.09 36.1245 117.505V130.897C36.1245 131.311 36.4604 131.647 36.8748 131.647H53.1844C53.5987 131.647 53.9346 131.311 53.9346 130.897V117.505C53.9346 117.09 53.5987 116.754 53.1844 116.754Z" fill="white"/>
<path id="vector_8" d="M53.185 131.992H36.8746C36.2707 131.992 35.7791 131.501 35.7791 130.897V117.504C35.7791 116.9 36.2699 116.408 36.8746 116.408H53.185C53.7889 116.408 54.2806 116.899 54.2806 117.504V130.897C54.2806 131.501 53.7897 131.992 53.185 131.992ZM36.8746 117.1C36.6524 117.1 36.4697 117.282 36.4697 117.505V130.898C36.4697 131.12 36.6516 131.302 36.8746 131.302H53.185C53.4072 131.302 53.5899 131.121 53.5899 130.898V117.505C53.5899 117.282 53.408 117.1 53.185 117.1H36.8746Z" fill="black"/>
<path id="vector_9" d="M50.4445 121.418H39.2311C39.0414 121.418 38.8857 121.262 38.8857 121.072C38.8857 120.883 39.0414 120.727 39.2311 120.727H50.4445C50.6342 120.727 50.7899 120.883 50.7899 121.072C50.7899 121.262 50.6342 121.418 50.4445 121.418Z" fill="black"/>
<path id="vector_10" d="M47.6416 124.546H39.2301C39.0404 124.546 38.8848 124.39 38.8848 124.201C38.8848 124.011 39.0404 123.855 39.2301 123.855H47.6416C47.8312 123.855 47.9869 124.011 47.9869 124.201C47.9869 124.39 47.8312 124.546 47.6416 124.546Z" fill="black"/>
<path id="vector_11" d="M50.4445 127.673H39.2311C39.0414 127.673 38.8857 127.517 38.8857 127.327C38.8857 127.138 39.0414 126.982 39.2311 126.982H50.4445C50.6342 126.982 50.7899 127.138 50.7899 127.327C50.7899 127.517 50.6342 127.673 50.4445 127.673Z" fill="black"/>
<path id="vector_12" d="M77.4253 110.238C79.4221 110.238 81.0411 111.857 81.0411 113.854C81.0411 115.851 79.4221 117.47 77.4253 117.47C75.4285 117.47 73.8096 115.851 73.8096 113.854C73.8096 111.857 75.4285 110.238 77.4253 110.238Z" fill="white"/>
<path id="vector_13" d="M77.4252 117.815C75.2426 117.815 73.4641 116.039 73.4641 113.854C73.4641 111.669 75.2402 109.895 77.4252 109.895C79.6101 109.895 81.3862 111.671 81.3862 113.854C81.3862 116.036 79.6101 117.815 77.4252 117.815ZM77.4252 110.585C75.6219 110.585 74.1547 112.052 74.1547 113.854C74.1547 115.655 75.6219 117.124 77.4252 117.124C79.2284 117.124 80.6956 115.657 80.6956 113.854C80.6956 112.051 79.2284 110.585 77.4252 110.585Z" fill="black"/>
<path id="vector_14" d="M79.8726 21.7139C80.6414 21.7139 81.2655 22.3371 81.2655 23.1067C81.2655 23.8764 80.6422 24.4996 79.8726 24.4996C79.103 24.4996 78.4797 23.8764 78.4797 23.1067C78.4797 22.3371 79.103 21.7139 79.8726 21.7139Z" fill="black"/>
<path id="vector_15" d="M74.5213 22.1709C75.0385 22.1709 75.4573 22.5898 75.4573 23.107C75.4573 23.6242 75.0385 24.043 74.5213 24.043C74.0041 24.043 73.5852 23.6242 73.5852 23.107C73.5852 22.5898 74.0041 22.1709 74.5213 22.1709Z" fill="black"/>
<path id="vector_16" d="M118.101 19.9092H115.996V26.7303H118.101V19.9092Z" fill="black"/>
</g>
<g id="profile 2">
<path id="vector_17" d="M73.5966 58.6753H19.7226C19.2416 58.6753 18.8516 59.0653 18.8516 59.5463V97.2329C18.8516 97.7144 19.2416 98.1039 19.7226 98.1039H73.5966C74.0776 98.1039 74.4676 97.7144 74.4676 97.2329V59.5463C74.4676 59.0653 74.0776 58.6753 73.5966 58.6753Z" fill="white"/>
<path id="vector_18" d="M73.5941 98.4493H19.7225C19.0512 98.4493 18.5061 97.9027 18.5061 97.2329V59.5479C18.5061 58.8766 19.0527 58.3315 19.7225 58.3315H73.5941C74.2654 58.3315 74.8104 58.8782 74.8104 59.5479V97.2329C74.8104 97.9042 74.2638 98.4493 73.5941 98.4493ZM19.7225 59.0206C19.4329 59.0206 19.1967 59.2568 19.1967 59.5463V97.2306C19.1967 97.5202 19.4329 97.7563 19.7225 97.7563H73.5941C73.8837 97.7563 74.1198 97.5202 74.1198 97.2306V59.5463C74.1198 59.2568 73.8837 59.0206 73.5941 59.0206H19.7225Z" fill="black"/>
<path id="vector_19" d="M33.1973 82.0299C38.4889 82.0299 42.7787 77.7406 42.7787 72.4485C42.7787 67.1569 38.4889 62.8672 33.1973 62.8672C27.9057 62.8672 23.616 67.1569 23.616 72.4485C23.616 77.7406 27.9057 82.0299 33.1973 82.0299Z" fill="#81F8F8"/>
<path id="vector_20" d="M27.842 80.3953V76.7548C27.842 75.4602 28.8935 74.4111 30.188 74.4111H36.2071C37.5039 74.4111 38.553 75.4602 38.553 76.7548V80.3953C34.983 82.5764 31.4137 82.5764 27.842 80.3953Z" fill="#FFD997"/>
<path id="vector_21" d="M38.2652 80.3953V76.7547C38.2652 75.6212 37.3422 74.6983 36.2072 74.6983H30.1882C29.0523 74.6983 28.1302 75.6212 28.1302 76.7547V80.3953C28.1302 80.7762 27.5549 80.7762 27.5549 80.3953V76.7547C27.5549 75.3046 28.7364 74.123 30.1882 74.123H36.2072C37.6589 74.123 38.8404 75.303 38.8404 76.7547V80.3953C38.8404 80.7762 38.2652 80.7762 38.2652 80.3953Z" fill="black"/>
<path id="vector_22" d="M33.1973 74.4109C35.4752 74.4109 37.3217 72.5643 37.3217 70.2865C37.3217 68.0087 35.4752 66.1621 33.1973 66.1621C30.9195 66.1621 29.0729 68.0087 29.0729 70.2865C29.0729 72.5643 30.9195 74.4109 33.1973 74.4109Z" fill="#FFD997"/>
<path id="vector_23" d="M33.1974 74.6984C30.7655 74.6984 28.7858 72.7186 28.7858 70.2867C28.7858 67.8548 30.7655 65.875 33.1974 65.875C35.6294 65.875 37.6091 67.8548 37.6091 70.2867C37.6091 72.7186 35.6294 74.6984 33.1974 74.6984ZM33.1974 66.4518C31.0814 66.4518 29.361 68.1722 29.361 70.2882C29.361 72.4043 31.0814 74.1246 33.1974 74.1246C35.3135 74.1246 37.0339 72.4043 37.0339 70.2882C37.0339 68.1722 35.3135 66.4518 33.1974 66.4518Z" fill="black"/>
<path id="vector_24" d="M33.1973 82.3193C27.7551 82.3193 23.3279 77.8921 23.3279 72.4499C23.3279 67.0077 27.7551 62.5806 33.1973 62.5806C38.6395 62.5806 43.0666 67.0077 43.0666 72.4499C43.0666 77.8921 38.6395 82.3193 33.1973 82.3193ZM33.1973 63.1566C28.0717 63.1566 23.9039 67.3267 23.9039 72.4499C23.9039 77.5731 28.074 81.7432 33.1973 81.7432C38.3205 81.7432 42.4906 77.5731 42.4906 72.4499C42.4906 67.3267 38.3205 63.1566 33.1973 63.1566Z" fill="black"/>
<path id="vector_25" d="M47.5992 65.6094H68.4939C69.1606 65.6094 69.7002 66.149 69.7002 66.8149C69.7002 67.4807 69.1598 68.0204 68.4939 68.0204H47.5992C46.9326 68.0204 46.3929 67.4807 46.3929 66.8149C46.3929 66.149 46.9334 65.6094 47.5992 65.6094Z" fill="white"/>
<path id="vector_26" d="M68.4943 68.3084H47.5972C46.7742 68.3084 46.1029 67.6387 46.1029 66.8141C46.1029 65.9896 46.7726 65.3198 47.5972 65.3198H68.4943C69.3173 65.3198 69.9862 65.9896 69.9862 66.8141C69.9862 67.6387 69.3165 68.3084 68.4943 68.3084ZM47.5972 65.8974C47.0909 65.8974 46.6782 66.3101 46.6782 66.8165C46.6782 67.3228 47.0909 67.7355 47.5972 67.7355H68.4943C69.0006 67.7355 69.411 67.3228 69.411 66.8165C69.411 66.3101 68.9983 65.8974 68.4943 65.8974H47.5972Z" fill="black"/>
<path id="vector_27" d="M47.5992 71.2437H64.6521C65.3187 71.2437 65.8584 71.7832 65.8584 72.4491C65.8584 73.1149 65.318 73.6546 64.6521 73.6546H47.5992C46.9326 73.6546 46.3929 73.1149 46.3929 72.4491C46.3929 71.7832 46.9334 71.2437 47.5992 71.2437Z" fill="white"/>
<path id="vector_28" d="M64.6521 73.9426H47.5977C46.7747 73.9426 46.1034 73.2729 46.1034 72.4483C46.1034 71.6238 46.7731 70.9541 47.5977 70.9541H64.6521C65.4752 70.9541 66.1441 71.6238 66.1441 72.4483C66.1441 73.2729 65.4744 73.9426 64.6521 73.9426ZM47.5977 71.5316C47.0913 71.5316 46.6787 71.9443 46.6787 72.4507C46.6787 72.957 47.0913 73.3697 47.5977 73.3697H64.6521C65.1585 73.3697 65.5688 72.957 65.5688 72.4507C65.5688 71.9443 65.1562 71.5316 64.6521 71.5316H47.5977Z" fill="black"/>
<path id="vector_29" d="M47.5992 76.877H66.7008C67.3674 76.877 67.9071 77.4166 67.9071 78.0825C67.9071 78.7483 67.3666 79.288 66.7008 79.288H47.5992C46.9326 79.288 46.3929 78.7483 46.3929 78.0825C46.3929 77.4166 46.9334 76.877 47.5992 76.877Z" fill="white"/>
<path id="vector_30" d="M66.7008 79.576H47.5977C46.7747 79.576 46.1034 78.9063 46.1034 78.0817C46.1034 77.2571 46.7731 76.5874 47.5977 76.5874H66.7008C67.5238 76.5874 68.1951 77.2571 68.1951 78.0817C68.1951 78.9063 67.5254 79.576 66.7008 79.576ZM47.5977 77.165C47.0913 77.165 46.6787 77.5777 46.6787 78.084C46.6787 78.5904 47.0913 79.0031 47.5977 79.0031H66.7008C67.2072 79.0031 67.6198 78.5904 67.6198 78.084C67.6198 77.5777 67.2072 77.165 66.7008 77.165H47.5977Z" fill="black"/>
<path id="vector_31" d="M31.2904 88.6914L29.0419 88.2578L27.9332 86.2533C27.7722 85.9598 27.3463 85.9598 27.1853 86.2533L26.0766 88.2578L23.8266 88.6914C23.4968 88.7533 23.3659 89.1575 23.5943 89.4029L25.1575 91.0753L24.8757 93.3485C24.8354 93.6784 25.1715 93.9346 25.4858 93.7875L27.5616 92.8166L29.635 93.7875C29.9424 93.9331 30.2823 93.6791 30.2413 93.3485L29.9594 91.0753L31.5226 89.4029C31.7518 89.1575 31.6202 88.7533 31.2904 88.6914Z" fill="black"/>
<path id="vector_32" d="M40.8396 88.6914L38.5911 88.2578L37.4824 86.2533C37.3214 85.9598 36.8955 85.9598 36.7345 86.2533L35.6258 88.2578L33.3773 88.6914C33.0491 88.7526 32.9151 89.1567 33.1451 89.4029L34.7083 91.0753L34.4264 93.3485C34.3854 93.6737 34.7183 93.9354 35.0342 93.7875L37.11 92.8166L39.1834 93.7875C39.4916 93.9331 39.8299 93.6791 39.7897 93.3485L39.5079 91.0753L41.0711 89.4029C41.301 89.156 41.1663 88.7526 40.8388 88.6914H40.8396Z" fill="black"/>
<path id="vector_33" d="M50.3904 88.6914L48.142 88.2578L47.0333 86.2533C46.8722 85.9598 46.4464 85.9598 46.2854 86.2533L45.1766 88.2578L42.9282 88.6914C42.6007 88.7526 42.466 89.156 42.6967 89.4029L44.2599 91.0753L43.9781 93.3485C43.9371 93.6737 44.2692 93.9354 44.5859 93.7875L46.6616 92.8166L48.7351 93.7875C49.0425 93.9331 49.3816 93.6791 49.3413 93.3485L49.0595 91.0753L50.6227 89.4029C50.8519 89.1567 50.7195 88.7526 50.3904 88.6914ZM48.5895 90.7339C48.4037 90.9367 48.4587 90.9236 48.7351 93.1565L46.8397 92.27C46.5858 92.1531 46.5889 92.2166 44.5805 93.1565L44.8375 91.0792C44.8747 90.8105 44.8336 90.8492 43.2975 89.2055C45.3911 88.8006 45.508 88.8447 45.645 88.5954L46.6578 86.7635L47.6705 88.5954C47.8029 88.8362 47.8091 88.7789 50.018 89.2055L48.5888 90.7347L48.5895 90.7339Z" fill="black"/>
<path id="vector_34" d="M59.9422 88.6914L57.6938 88.2578L56.5851 86.2533C56.4241 85.9598 55.9982 85.9598 55.8372 86.2533L54.7284 88.2578L52.48 88.6914C52.1517 88.7526 52.0186 89.1567 52.2477 89.4029L53.811 91.0753L53.5291 93.3485C53.4881 93.676 53.8218 93.9346 54.1369 93.7875L56.2119 92.8166L58.2854 93.7875C58.5935 93.9331 58.9326 93.6783 58.8916 93.3485L58.6098 91.0753L60.173 89.4029C60.4022 89.1575 60.2705 88.7533 59.9407 88.6914H59.9422ZM58.1413 90.7339C57.9547 90.9367 58.0105 90.9236 58.2869 93.1565L56.3915 92.27C56.143 92.1562 56.1701 92.2034 54.1323 93.1565L54.3893 91.0792C54.4265 90.8105 54.3854 90.8485 52.8493 89.2055C54.9429 88.8006 55.0598 88.8447 55.1969 88.5954L56.2096 86.7635L57.2223 88.5954C57.3555 88.8362 57.3609 88.7781 59.5706 89.2055L58.1413 90.7347V90.7339Z" fill="black"/>
<path id="vector_35" d="M69.4952 88.6914L67.2468 88.2578L66.1381 86.2533C65.977 85.9598 65.5512 85.9598 65.3901 86.2533L64.2814 88.2578L62.0314 88.6914C61.7016 88.7533 61.5707 89.1575 61.7991 89.4029L63.3624 91.0753L63.0805 93.3485C63.0395 93.6791 63.3763 93.9346 63.6906 93.7875L65.7664 92.8166L67.8399 93.7875C68.148 93.9331 68.4864 93.6791 68.4461 93.3485L68.1643 91.0753L69.7275 89.4029C69.9567 89.1575 69.8243 88.7526 69.4952 88.6914ZM67.692 90.7339C67.5069 90.9321 67.5619 90.9236 67.8375 93.1565L65.9422 92.27C65.6936 92.1562 65.7207 92.2034 63.6821 93.1565L63.9392 91.0792C63.9763 90.8067 63.9129 90.8252 62.3984 89.2055C64.523 88.7951 64.6097 88.8432 64.7459 88.5954L65.7587 86.7635L66.7714 88.5954C66.9038 88.8362 66.91 88.7781 69.1189 89.2055L67.6897 90.7347L67.692 90.7339Z" fill="black"/>
<path id="vector_36" d="M34.3698 80.1903L33.6962 75.3729L34.0609 74.659C34.1747 74.4314 34.0145 74.1565 33.7543 74.1565C32.5596 74.1565 32.4752 74.1108 32.3444 74.3214C32.2182 74.5289 32.308 74.6141 32.6944 75.3706L32.0208 80.191C32.0053 80.3103 32.0517 80.4295 32.1439 80.5054C33.0823 81.2835 33.0389 81.2711 33.1953 81.2727C33.3579 81.2711 33.3385 81.2525 34.2483 80.5054C34.342 80.4287 34.3884 80.3095 34.3714 80.191L34.3698 80.1903Z" fill="black"/>
</g>
<g id="profile 3">
<path id="vector_37" d="M135.13 58.6753H81.2559C80.7751 58.6753 80.3849 59.0653 80.3849 59.5463V97.2329C80.3849 97.7144 80.7751 98.1039 81.2559 98.1039H135.13C135.611 98.1039 136.001 97.7144 136.001 97.2329V59.5463C136.001 59.0653 135.611 58.6753 135.13 58.6753Z" fill="white"/>
<path id="vector_38" d="M135.128 98.4493H81.2559C80.5846 98.4493 80.0396 97.9027 80.0396 97.2329V59.5479C80.0396 58.8766 80.5862 58.3315 81.2559 58.3315H135.128C135.8 58.3315 136.345 58.8782 136.345 59.5479V97.2329C136.345 97.9042 135.798 98.4493 135.128 98.4493H135.128ZM81.2551 59.0214C80.9656 59.0214 80.7279 59.2575 80.7279 59.5471V97.2314C80.7279 97.521 80.964 97.7571 81.2551 97.7571H135.128C135.417 97.7571 135.653 97.521 135.653 97.2314V59.5471C135.653 59.2575 135.417 59.0214 135.128 59.0214H81.2551Z" fill="black"/>
<path id="vector_39" d="M94.7307 82.0299C100.023 82.0299 104.312 77.7406 104.312 72.4485C104.312 67.1569 100.023 62.8672 94.7307 62.8672C89.4386 62.8672 85.1493 67.1569 85.1493 72.4485C85.1493 77.7406 89.4386 82.0299 94.7307 82.0299Z" fill="#81F8F8"/>
<path id="vector_40" d="M89.3767 80.3953V76.7548C89.3767 75.4602 90.4281 74.4111 91.7227 74.4111H97.7417C99.0386 74.4111 100.088 75.4602 100.088 76.7548V80.3953C96.5176 82.5764 92.9483 82.5764 89.3767 80.3953Z" fill="#FFD997"/>
<path id="vector_41" d="M99.7985 80.3953V76.7547C99.7985 75.6212 98.8756 74.6983 97.7405 74.6983H91.7215C90.5857 74.6983 89.6635 75.6212 89.6635 76.7547V80.3953C89.6635 80.7762 89.0883 80.7762 89.0883 80.3953V76.7547C89.0883 75.3046 90.2698 74.123 91.7223 74.123H97.7413C99.193 74.123 100.375 75.303 100.375 76.7547V80.3953C100.375 80.7762 99.7992 80.7762 99.7992 80.3953H99.7985Z" fill="black"/>
<path id="vector_42" d="M94.7306 74.4109C97.0085 74.4109 98.8551 72.5643 98.8551 70.2865C98.8551 68.0087 97.0085 66.1621 94.7306 66.1621C92.4528 66.1621 90.6062 68.0087 90.6062 70.2865C90.6062 72.5643 92.4528 74.4109 94.7306 74.4109Z" fill="#FFD997"/>
<path id="vector_43" d="M94.7307 74.6984C92.2987 74.6984 90.319 72.7186 90.319 70.2867C90.319 67.8548 92.2987 65.875 94.7307 65.875C97.1626 65.875 99.1423 67.8548 99.1423 70.2867C99.1423 72.7186 97.1626 74.6984 94.7307 74.6984ZM94.7307 66.4518C92.6146 66.4518 90.8942 68.1722 90.8942 70.2882C90.8942 72.4043 92.6146 74.1246 94.7307 74.1246C96.8467 74.1246 98.5671 72.4043 98.5671 70.2882C98.5671 68.1722 96.8467 66.4518 94.7307 66.4518Z" fill="black"/>
<path id="vector_44" d="M94.7306 82.3193C89.2884 82.3193 84.8612 77.8921 84.8612 72.4499C84.8612 67.0077 89.2884 62.5806 94.7306 62.5806C100.173 62.5806 104.6 67.0077 104.6 72.4499C104.6 77.8921 100.173 82.3193 94.7306 82.3193ZM94.7306 63.1566C89.605 63.1566 85.4372 67.3267 85.4372 72.4499C85.4372 77.5731 89.6074 81.7432 94.7306 81.7432C99.8538 81.7432 104.024 77.5731 104.024 72.4499C104.024 67.3267 99.8538 63.1566 94.7306 63.1566Z" fill="black"/>
<path id="vector_45" d="M109.133 65.6094H130.027C130.694 65.6094 131.234 66.149 131.234 66.8149C131.234 67.4807 130.693 68.0204 130.027 68.0204H109.133C108.466 68.0204 107.926 67.4807 107.926 66.8149C107.926 66.149 108.467 65.6094 109.133 65.6094Z" fill="white"/>
<path id="vector_46" d="M130.029 68.3084H109.132C108.309 68.3084 107.638 67.6387 107.638 66.8141C107.638 65.9896 108.307 65.3198 109.132 65.3198H130.029C130.852 65.3198 131.523 65.9896 131.523 66.8141C131.523 67.6387 130.854 68.3084 130.029 68.3084ZM109.132 65.8974C108.626 65.8974 108.213 66.3101 108.213 66.8165C108.213 67.3228 108.626 67.7355 109.132 67.7355H130.029C130.535 67.7355 130.948 67.3228 130.948 66.8165C130.948 66.3101 130.535 65.8974 130.029 65.8974H109.132Z" fill="black"/>
<path id="vector_47" d="M109.133 71.2437H126.185C126.852 71.2437 127.392 71.7832 127.392 72.4491C127.392 73.1149 126.851 73.6546 126.185 73.6546H109.133C108.466 73.6546 107.926 73.1149 107.926 72.4491C107.926 71.7832 108.467 71.2437 109.133 71.2437Z" fill="white"/>
<path id="vector_48" d="M126.187 73.9426H109.132C108.309 73.9426 107.638 73.2729 107.638 72.4483C107.638 71.6238 108.308 70.9541 109.132 70.9541H126.187C127.01 70.9541 127.681 71.6238 127.681 72.4483C127.681 73.2729 127.012 73.9426 126.187 73.9426ZM109.132 71.5316C108.626 71.5316 108.213 71.9443 108.213 72.4507C108.213 72.957 108.626 73.3697 109.132 73.3697H126.187C126.693 73.3697 127.106 72.957 127.106 72.4507C127.106 71.9443 126.693 71.5316 126.187 71.5316H109.132Z" fill="black"/>
<path id="vector_49" d="M109.133 76.877H128.234C128.901 76.877 129.44 77.4166 129.44 78.0825C129.44 78.7483 128.9 79.288 128.234 79.288H109.133C108.466 79.288 107.926 78.7483 107.926 78.0825C107.926 77.4166 108.467 76.877 109.133 76.877Z" fill="white"/>
<path id="vector_50" d="M128.236 79.576H109.132C108.309 79.576 107.638 78.9063 107.638 78.0817C107.638 77.2571 108.308 76.5874 109.132 76.5874H128.236C129.059 76.5874 129.73 77.2571 129.73 78.0817C129.73 78.9063 129.06 79.576 128.236 79.576ZM109.132 77.165C108.626 77.165 108.213 77.5777 108.213 78.084C108.213 78.5904 108.626 79.0031 109.132 79.0031H128.236C128.742 79.0031 129.155 78.5904 129.155 78.084C129.155 77.5777 128.742 77.165 128.236 77.165H109.132Z" fill="black"/>
<path id="vector_51" d="M92.8044 88.7851L90.5118 88.3422L89.3822 86.2974C89.2544 86.0698 88.9269 86.0705 88.7992 86.2974L87.6695 88.3422L85.377 88.7851C85.1207 88.8346 85.0185 89.149 85.1966 89.3394L86.7908 91.0443L86.5027 93.3616C86.4687 93.6218 86.7435 93.8154 86.9766 93.7031L89.0926 92.7128L91.2087 93.7031C91.4487 93.8123 91.7111 93.6172 91.6786 93.3616L91.3906 91.0443L92.9848 89.3394C93.1621 89.149 93.0599 88.8346 92.8044 88.7851Z" fill="black"/>
<path id="vector_52" d="M102.355 88.7851L100.064 88.3422L98.9339 86.2974C98.8031 86.0659 98.4725 86.0744 98.3509 86.2974L97.2213 88.3422L94.9287 88.7851C94.6725 88.8346 94.5703 89.149 94.7483 89.3394L96.3425 91.0443L96.0545 93.3617C96.0212 93.6218 96.2945 93.8154 96.5284 93.7031L98.6444 92.7128L100.76 93.7031C101 93.8123 101.263 93.6179 101.23 93.3617L100.942 91.0443L102.537 89.3394C102.714 89.1505 102.612 88.8346 102.356 88.7851H102.355Z" fill="black"/>
<path id="vector_53" d="M111.908 88.7851L109.616 88.3422L108.487 86.2974C108.356 86.0659 108.025 86.0744 107.904 86.2974L106.774 88.3422L104.482 88.7851C104.225 88.8346 104.123 89.149 104.301 89.3394L105.895 91.0443L105.607 93.3617C105.574 93.6218 105.847 93.8154 106.081 93.7031L108.197 92.7128L110.313 93.7031C110.553 93.8123 110.816 93.6172 110.783 93.3617L110.495 91.0443L112.089 89.3394C112.267 89.149 112.165 88.8346 111.909 88.7851H111.908Z" fill="black"/>
<path id="vector_54" d="M121.459 88.7851L119.166 88.3422L118.037 86.2974C117.907 86.0674 117.576 86.0729 117.454 86.2974L116.324 88.3422L114.031 88.7851C113.775 88.8346 113.673 89.149 113.851 89.3394L115.445 91.0443L115.157 93.3617C115.124 93.6226 115.399 93.8154 115.631 93.7031L117.747 92.7128L119.863 93.7031C120.102 93.8123 120.366 93.6179 120.333 93.3617L120.045 91.0443L121.639 89.3371C121.816 89.1482 121.716 88.8346 121.459 88.7851Z" fill="black"/>
<path id="vector_55" d="M125.044 93.8288C124.77 93.8288 124.583 93.5973 124.614 93.3495L124.896 91.0763L123.332 89.4039C123.103 89.1577 123.236 88.7543 123.565 88.6924L125.815 88.2588L126.923 86.2543C127.085 85.9608 127.51 85.9608 127.671 86.2543C127.714 86.3317 127.671 86.2543 128.78 88.2588L131.029 88.6924C131.357 88.7543 131.49 89.1577 131.261 89.4039L129.698 91.0763L129.979 93.3495C130.02 93.6801 129.681 93.9348 129.373 93.7885L127.3 92.8176C125.062 93.8644 125.178 93.8288 125.044 93.8288ZM127.294 92.2292C127.436 92.2292 127.366 92.2183 129.371 93.1559C129.093 90.9067 129.042 90.9261 129.227 90.7333L130.656 89.2042L128.602 88.807C128.336 88.7574 128.384 88.7311 127.296 86.7622C126.2 88.7458 126.252 88.7582 125.99 88.807L123.936 89.2042L125.365 90.7333C125.551 90.9307 125.496 90.923 125.219 93.1559C127.325 92.1711 127.163 92.2292 127.295 92.2292H127.294Z" fill="black"/>
<path id="vector_56" d="M95.903 80.2519L95.2294 75.4368L95.5956 74.7198C95.7094 74.4922 95.5499 74.2174 95.289 74.2174C94.1082 74.2174 94.0099 74.1678 93.8791 74.3823C93.7567 74.5828 93.8264 74.644 94.2275 75.4283L93.5531 80.2519C93.5376 80.3711 93.5841 80.4903 93.6762 80.5662C94.6146 81.3443 94.5712 81.3319 94.7276 81.3335C94.8949 81.3319 94.8786 81.3072 95.7806 80.5662C95.8743 80.4896 95.9208 80.3703 95.9037 80.2519H95.903Z" fill="black"/>
</g>
<g id="profile 1">
<path id="vector_57" d="M114.914 -1.78564H39.936C39.2654 -1.78564 38.7219 -1.24211 38.7219 -0.571618V51.8777C38.7219 52.5482 39.2654 53.0917 39.936 53.0917H114.914C115.585 53.0917 116.128 52.5482 116.128 51.8777V-0.571618C116.128 -1.24211 115.585 -1.78564 114.914 -1.78564Z" fill="white"/>
<path id="vector_58" d="M114.914 53.4391H39.9342C39.0748 53.4391 38.3749 52.7392 38.3749 51.8798V-0.571112C38.3749 -1.43053 39.0748 -2.12891 39.9342 -2.12891H114.914C115.774 -2.12891 116.472 -1.43053 116.472 -0.571112V51.8798C116.472 52.7392 115.772 53.4391 114.914 53.4391ZM39.9342 -1.4406C39.455 -1.4406 39.0655 -1.05115 39.0655 -0.571887V51.8798C39.0655 52.359 39.455 52.7485 39.9342 52.7485H114.914C115.394 52.7485 115.783 52.359 115.783 51.8798V-0.571112C115.783 -1.05037 115.394 -1.43982 114.914 -1.43982H39.9342V-1.4406Z" fill="black"/>
<path id="vector_59" d="M68.1212 26.8155C73.3298 21.6069 73.3298 13.1622 68.1212 7.95377C62.9127 2.74523 54.468 2.74523 49.2596 7.95377C44.051 13.1622 44.051 21.6069 49.2596 26.8155C54.468 32.024 62.9127 32.024 68.1212 26.8155Z" fill="#81F8F8"/>
<path id="vector_60" d="M51.236 28.4447V23.3765C51.236 21.5756 52.6993 20.1138 54.501 20.1138H62.8776C64.6824 20.1138 66.1426 21.5732 66.1426 23.3765V28.4447C61.1743 31.479 56.2043 31.479 51.2367 28.4447H51.236Z" fill="#FFD997"/>
<path id="vector_61" d="M66.1443 28.7901C65.9546 28.7901 65.799 28.6345 65.799 28.4448V23.3766C65.799 21.7692 64.489 20.4592 62.8793 20.4592H54.5027C52.893 20.4592 51.583 21.7677 51.583 23.3766V28.4448C51.583 28.6345 51.4273 28.7901 51.2376 28.7901C51.048 28.7901 50.8923 28.6345 50.8923 28.4448V23.3766C50.8923 21.3875 52.5113 19.7686 54.5027 19.7686H62.8793C64.8707 19.7686 66.4896 21.3875 66.4896 23.3766V28.4448C66.4896 28.6345 66.334 28.7901 66.1443 28.7901Z" fill="black"/>
<path id="vector_62" d="M58.6896 20.1148C61.8595 20.1148 64.4291 17.5451 64.4291 14.3753C64.4291 11.2054 61.8595 8.63574 58.6896 8.63574C55.5198 8.63574 52.9501 11.2054 52.9501 14.3753C52.9501 17.5451 55.5198 20.1148 58.6896 20.1148Z" fill="#FFD997"/>
<path id="vector_63" d="M58.6899 20.4597C55.3351 20.4597 52.6051 17.7305 52.6051 14.3749C52.6051 11.0193 55.3343 8.29004 58.6899 8.29004C62.0456 8.29004 64.7748 11.0193 64.7748 14.3749C64.7748 17.7305 62.0456 20.4597 58.6899 20.4597ZM58.6899 8.98299C55.7168 8.98299 53.2957 11.4018 53.2957 14.3772C53.2957 17.3527 55.7145 19.7714 58.6899 19.7714C61.6654 19.7714 64.0842 17.3527 64.0842 14.3772C64.0842 11.4018 61.6654 8.98299 58.6899 8.98299Z" fill="black"/>
<path id="vector_64" d="M58.6898 31.0658C51.1455 31.0658 45.0072 24.9276 45.0072 17.3833C45.0072 9.83895 51.1455 3.70068 58.6898 3.70068C66.2341 3.70068 72.3723 9.83895 72.3723 17.3833C72.3723 24.9276 66.2341 31.0658 58.6898 31.0658ZM58.6898 4.39364C51.5272 4.39364 45.6978 10.2214 45.6978 17.3856C45.6978 24.5497 51.5256 30.3775 58.6898 30.3775C65.8539 30.3775 71.6817 24.5497 71.6817 17.3856C71.6817 10.2214 65.8539 4.39364 58.6898 4.39364Z" fill="black"/>
<path id="vector_65" d="M78.7336 7.86523H107.817C108.744 7.86523 109.495 8.61703 109.495 9.54381C109.495 10.4706 108.744 11.2224 107.817 11.2224H78.7336C77.8069 11.2224 77.0551 10.4706 77.0551 9.54381C77.0551 8.61703 77.8069 7.86523 78.7336 7.86523Z" fill="white"/>
<path id="vector_66" d="M107.819 11.5654H78.7334C77.6169 11.5654 76.7095 10.6579 76.7095 9.54147C76.7095 8.425 77.6169 7.51758 78.7334 7.51758H107.819C108.935 7.51758 109.843 8.425 109.843 9.54147C109.843 10.6579 108.935 11.5654 107.819 11.5654ZM78.7334 8.20821C77.9986 8.20821 77.4002 8.80671 77.4002 9.54147C77.4002 10.2762 77.9986 10.8747 78.7334 10.8747H107.819C108.554 10.8747 109.152 10.2762 109.152 9.54147C109.152 8.80671 108.554 8.20821 107.819 8.20821H78.7334Z" fill="black"/>
<path id="vector_67" d="M78.7336 15.7065H102.471C103.398 15.7065 104.15 16.4583 104.15 17.3851C104.15 18.3119 103.399 19.0637 102.471 19.0637H78.7336C77.8069 19.0637 77.0551 18.3127 77.0551 17.3851C77.0551 16.4576 77.8069 15.7065 78.7336 15.7065Z" fill="white"/>
<path id="vector_68" d="M102.471 19.4086H78.7329C77.6164 19.4086 76.709 18.5012 76.709 17.3847C76.709 16.2683 77.6164 15.3608 78.7329 15.3608H102.471C103.587 15.3608 104.495 16.2683 104.495 17.3847C104.495 18.5012 103.587 19.4086 102.471 19.4086ZM78.7329 16.0515C77.9981 16.0515 77.3996 16.65 77.3996 17.3847C77.3996 18.1195 77.9981 18.718 78.7329 18.718H102.471C103.205 18.718 103.804 18.1195 103.804 17.3847C103.804 16.65 103.205 16.0515 102.471 16.0515H78.7329Z" fill="black"/>
<path id="vector_69" d="M78.7336 23.5479H105.321C106.248 23.5479 107 24.2996 107 25.2264C107 26.1532 106.248 26.905 105.321 26.905H78.7336C77.8069 26.905 77.0551 26.1532 77.0551 25.2264C77.0551 24.2996 77.8069 23.5479 78.7336 23.5479Z" fill="white"/>
<path id="vector_70" d="M105.322 27.2499H78.7315C77.6151 27.2499 76.7076 26.3425 76.7076 25.226C76.7076 24.1096 77.6151 23.2021 78.7315 23.2021H105.322C106.438 23.2021 107.346 24.1096 107.346 25.226C107.346 26.3425 106.438 27.2499 105.322 27.2499ZM78.7315 23.8928C77.9968 23.8928 77.3983 24.4913 77.3983 25.226C77.3983 25.9608 77.9968 26.5593 78.7315 26.5593H105.322C106.056 26.5593 106.655 25.9608 106.655 25.226C106.655 24.4913 106.056 23.8928 105.322 23.8928H78.7315Z" fill="black"/>
<path id="vector_71" d="M56.0242 40.0461L52.8683 39.4359L51.3129 36.6239C51.1023 36.2445 50.5688 36.2576 50.3652 36.6239L48.8097 39.4359L45.6546 40.0461C45.2373 40.1289 45.0708 40.6345 45.3612 40.9457L47.5554 43.2933L47.1605 46.4832C47.1071 46.9013 47.5368 47.2195 47.9255 47.0391L50.8375 45.6772C54.0026 47.1576 53.8052 47.0886 53.9771 47.0886C54.3231 47.0886 54.5577 46.7913 54.5183 46.4824L54.1234 43.2925L56.3176 40.945C56.6056 40.6407 56.4469 40.1289 56.0242 40.0453V40.0461Z" fill="black"/>
<path id="vector_72" d="M69.3189 40.0459L66.1638 39.4358L64.6083 36.6238C64.3993 36.2475 63.8658 36.256 63.6606 36.6238L62.1052 39.4358L58.9493 40.0459C58.5359 40.128 58.3632 40.6321 58.6559 40.9456L60.8501 43.2932L60.4545 46.4831C60.401 46.9004 60.8292 47.2194 61.2202 47.039L64.1321 45.6771C67.2973 47.1574 67.0999 47.0885 67.2725 47.0885C67.6178 47.0885 67.8532 46.7912 67.8137 46.4823L67.4181 43.2924L69.6123 40.9449C69.9003 40.6406 69.7416 40.1288 69.3189 40.0452V40.0459Z" fill="black"/>
<path id="vector_73" d="M82.6117 40.0462L79.4566 39.4361L77.9011 36.624C77.6921 36.2478 77.1578 36.2555 76.9534 36.624L75.398 39.4361L72.2429 40.0462C71.8294 40.1283 71.6568 40.6323 71.9494 40.9459L74.1437 43.2934L73.7488 46.4834C73.6954 46.9007 74.1235 47.2197 74.5138 47.0393L77.4257 45.6774C80.5909 47.1577 80.3934 47.0888 80.5661 47.0888C80.9122 47.0888 81.1468 46.7915 81.1073 46.4826L80.7124 43.2927L82.9067 40.9451C83.1962 40.6393 83.0336 40.1291 82.6132 40.0455L82.6117 40.0462Z" fill="black"/>
<path id="vector_74" d="M95.9048 40.0462L92.749 39.4361L91.1935 36.624C90.9845 36.247 90.4502 36.2563 90.2458 36.624L88.6904 39.4361L85.5345 40.0462C85.1211 40.1283 84.9484 40.6323 85.2411 40.9459L87.4353 43.2935L87.0397 46.4834C86.9862 46.9022 87.4159 47.2189 87.8054 47.0393L90.7174 45.6774C93.8825 47.1577 93.6851 47.0888 93.8577 47.0888C94.2038 47.0888 94.4384 46.7915 94.3989 46.4826L94.0033 43.2927L96.1975 40.9451C96.4863 40.6393 96.3245 40.1291 95.9041 40.0455L95.9048 40.0462Z" fill="black"/>
<path id="vector_75" d="M109.198 40.0458L106.043 39.4357L104.488 36.6236C104.281 36.2505 103.748 36.2505 103.54 36.6236L101.985 39.4357L98.8296 40.0458C98.4161 40.1279 98.2435 40.6319 98.5361 40.9455L100.73 43.293L100.335 46.483C100.282 46.9026 100.713 47.2185 101.101 47.0389L104.013 45.677C107.178 47.1573 106.981 47.0884 107.154 47.0884C107.5 47.0884 107.733 46.7896 107.695 46.4822L107.3 43.2923L109.494 40.9447C109.782 40.6397 109.622 40.1287 109.201 40.0451L109.198 40.0458Z" fill="black"/>
<path id="vector_76" d="M60.1904 28.0591L59.2466 21.3138L59.7739 20.2787C59.8908 20.0441 59.7204 19.7762 59.4673 19.7762C57.8468 19.7762 57.7554 19.7189 57.6199 19.9411C57.4867 20.1594 57.5858 20.2376 58.1309 21.3084L57.1863 28.0591C57.1708 28.1783 57.2165 28.2968 57.3086 28.3735C58.5482 29.4024 58.5188 29.4102 58.6868 29.4109C58.8556 29.4102 58.7921 29.4202 60.0665 28.3735C60.1602 28.2968 60.2067 28.1776 60.1889 28.0591H60.1904Z" fill="black"/>
</g>
</g>
</g>
</svg>
